<?xml version="1.0" standalone="no"?>
<!DOCTYPE svg PUBLIC "-//W3C//DTD SVG 1.1//EN" "http://www.w3.org/Graphics/SVG/1.1/DTD/svg11.dtd" >
<svg xmlns="http://www.w3.org/2000/svg">
<metadata></metadata>
<defs>
<font id="vollkornbold" horiz-adv-x="1105" >
<font-face units-per-em="2048" ascent="1638" descent="-410" />
<missing-glyph horiz-adv-x="409" />
<glyph unicode="&#xfb01;" horiz-adv-x="1640" d="M55 756q0 107 31 162h123v65q0 222 176.5 353.5t511.5 131.5q291 0 465 -75q-25 -107 -25 -279q-128 -55 -340 -55q-14 150 -49 202t-135 52q-118 0 -166.5 -67t-48.5 -199v-129h342q240 4 414 38q69 -29 69 -114v-510q0 -72 14.5 -110t41 -51.5t77.5 -16.5 q19 -49 19 -160q-99 6 -346 6q-264 0 -346 -6q0 86 16 160q82 5 108.5 37.5t26.5 134.5v237q0 89 -34.5 125.5t-141.5 40.5q-76 0 -153 -7.5t-107 -16.5v-302q0 -145 27 -191t116 -58q15 -44 15 -160q-126 6 -330 6q-258 0 -369 -6q0 101 15 160q57 3 85 21t40 63t12 137 v344q-92 37 -154 37z" />
<glyph unicode="&#xfb02;" horiz-adv-x="1681" d="M55 756q0 113 29 162h125v59q0 160 86.5 272t233 165.5t341.5 53.5q77 0 158 -16t139 -41q151 22 219 57q72 -32 72 -131v-1005q0 -103 26.5 -138.5t108.5 -39.5q17 -55 17 -160q-76 6 -346 6q-272 0 -346 -6q0 110 18 160q81 4 107 39.5t26 138.5v786q0 97 -63.5 146 t-149.5 49q-125 0 -191.5 -60t-66.5 -206v-129h240q0 -124 -21 -170q-120 0 -219 -31v-314q0 -137 31 -188.5t131 -60.5q18 -51 18 -160q-117 6 -348 6q-232 0 -373 -6q0 101 15 160q58 4 85.5 22t39.5 64.5t12 142.5v348q-85 25 -154 25z" />
<glyph horiz-adv-x="0" />
<glyph horiz-adv-x="682" />
<glyph unicode=" "  horiz-adv-x="409" />
<glyph unicode="&#x09;" horiz-adv-x="409" />
<glyph unicode="&#xa0;" horiz-adv-x="409" />
<glyph unicode="!" horiz-adv-x="841" d="M207 1382q79 6 176 31t170 55q43 -11 56 -48t1 -120q-42 -312 -82 -798q-53 0 -78 0.5t-65 6.5t-66 19q-43 462 -112 854zM211 190q0 93 62.5 148t160.5 55q89 0 145 -57.5t56 -134.5q0 -92 -57 -154.5t-156 -62.5q-98 0 -154.5 55.5t-56.5 150.5z" />
<glyph unicode="&#x22;" horiz-adv-x="843" d="M123 1409q121 14 213 59q27 -6 43 -32.5t16 -53.5q0 -31 -4 -51q-8 -45 -16.5 -106t-13.5 -104.5t-15.5 -138t-15.5 -138.5q-38 0 -85 7.5t-63 18.5q-15 333 -59 539zM463 1409q116 17 194 59q30 -6 47 -32t17 -62q0 -16 -4 -45q-8 -46 -15 -103t-10.5 -101.5t-11 -133 t-12.5 -149.5q-101 0 -154 22q-1 20 -6.5 106t-8 120.5t-8 101t-12.5 117.5t-16 100z" />
<glyph unicode="#" horiz-adv-x="1277" d="M41 369q0 127 31 190h215l59 324q-95 0 -213 -4q0 107 33 190h213l74 399q53 0 103 -14.5t67 -36.5l-64 -348h287l74 399q49 0 102.5 -15.5t67.5 -31.5l-64 -352h211q0 -107 -29 -184h-174h-43l-59 -326h235q0 -106 -30 -182h-193h-45l-72 -395q-53 0 -101 13t-71 34 l64 348h-287l-72 -395q-45 0 -95 15.5t-75 39.5l62 338q-131 -3 -211 -6zM465 559h287l59 326h-287z" />
<glyph unicode="$" horiz-adv-x="1118" d="M57 94q27 133 27 348q98 25 246 25q12 -186 51.5 -251.5t142.5 -65.5q95 0 143 39.5t48 97.5q0 38 -21.5 70t-58 56.5t-83.5 48t-99 49t-104.5 54.5t-99.5 69t-83.5 88t-58 116t-21.5 149q0 183 102.5 284t276.5 124v147q113 0 186 -33l-2 -108q93 -6 177 -26t128 -48 q0 -218 15 -323q-74 -43 -230 -43q-24 155 -74.5 216.5t-134.5 61.5q-68 0 -109.5 -31t-41.5 -92q0 -53 37.5 -96t97 -74t131.5 -61.5t144 -70t131.5 -88.5t97 -127t37.5 -177q0 -175 -112.5 -289t-319.5 -143l4 -160q-47 0 -105 8.5t-82 24.5v119q-204 8 -383 112z" />
<glyph unicode="%" horiz-adv-x="1708" d="M172 1049q0 141 93 239t259 98q75 0 136 -27.5t99 -72t58.5 -99t20.5 -110.5q0 -145 -89.5 -243.5t-244.5 -98.5q-156 0 -244 93.5t-88 220.5zM256 61l1112 1344q47 0 94.5 -15t73.5 -44l-1124 -1360q-101 -5 -156 75zM414 1073q0 -81 27.5 -132.5t72.5 -51.5 q32 0 58 43.5t26 120.5q0 81 -27 132.5t-69 51.5q-37 0 -62.5 -47t-25.5 -117zM930 297q0 92 38.5 167.5t120 124t193.5 48.5q75 0 135.5 -27.5t98 -72t57.5 -99t20 -112.5q0 -146 -89 -245t-244 -99q-156 0 -243 93.5t-87 221.5zM1171 319q0 -80 27.5 -131t73.5 -51 q31 0 56.5 43.5t25.5 120.5q0 78 -27 129t-70 51q-37 0 -61.5 -46.5t-24.5 -115.5z" />
<glyph unicode="&#x26;" horiz-adv-x="1646" d="M109 379q0 171 82 280t247 181q-56 92 -79 163.5t-23 145.5q0 319 508 319q232 0 401 -59q-30 -110 -16 -330q-105 -24 -234 -24q-11 133 -50.5 194.5t-127.5 61.5q-42 0 -68 -31t-26 -84q0 -79 40 -164t152 -231q164 -213 215 -275q39 79 52 136q17 68 -7.5 100 t-101.5 47q-20 61 -20 135q66 -6 250 -6q145 0 213 6q0 -76 -17 -135q-71 -19 -98.5 -49.5t-54.5 -104.5q-41 -113 -109 -254q11 -13 34 -36.5t34 -36.5q68 -71 108.5 -92t122.5 -25q0 -109 -29 -191q-194 0 -401 -38q-43 59 -98 127q-79 -67 -171.5 -98t-220.5 -31 q-252 0 -379.5 104t-127.5 295zM506 485q0 -171 65 -255.5t164 -84.5q95 0 176 84q-306 378 -323 400l-37 49q-25 -30 -35 -70.5t-10 -122.5z" />
<glyph unicode="'" horiz-adv-x="518" d="M123 1407q128 12 207 61q65 -16 65 -98q0 -9 -4 -37q-25 -131 -51 -491q-90 0 -158 30q-9 285 -59 535z" />
<glyph unicode="(" horiz-adv-x="722" d="M72 492q0 316 105.5 561.5t303.5 464.5q76 0 133 -45q-125 -202 -180 -408t-55 -520q0 -334 67.5 -605t180.5 -464q-54 -31 -135 -31q-83 88 -156 199t-133.5 244t-95.5 290t-35 314z" />
<glyph unicode=")" horiz-adv-x="722" d="M96 -524q136 228 192 455.5t56 568.5q0 322 -56 548.5t-179 424.5q57 45 133 45q196 -217 302.5 -453.5t106.5 -511.5q0 -180 -35 -350t-96 -308.5t-133 -249.5t-156 -200q-81 0 -135 31z" />
<glyph unicode="*" horiz-adv-x="1038" d="M123 1071q48 157 143 242q106 -130 209 -228q0 145 -18 312q164 0 282 -62q-88 -131 -153 -264q150 48 293 113q49 -123 30 -303q-169 49 -315 71q112 -127 215 -235q-138 -112 -285 -123q-10 189 -32 315q-98 -142 -170 -264q-67 47 -111.5 99t-69.5 120q160 66 277 131 q-99 36 -295 76z" />
<glyph unicode="+" horiz-adv-x="1183" d="M88 442q0 45 1 67t7 54.5t19 65.5h383q0 217 -2 379q39 16 76 21t108 5v-405h414q0 -45 -1 -68t-7 -56t-19 -61q-164 2 -387 2v-413q-39 -27 -186 -27q4 135 4 440q-124 0 -410 -4z" />
<glyph unicode="," horiz-adv-x="647" d="M123 27q0 74 6 121.5t27 113.5q169 6 258 66q62 -18 86 -62.5t24 -152.5q0 -129 -61.5 -262.5t-167.5 -233.5q-104 6 -164 55q137 155 137 256q0 38 -38 64t-107 35z" />
<glyph unicode="-" horiz-adv-x="858" d="M123 453q0 120 35 215h577q0 -120 -26 -199q-377 0 -586 -16z" />
<glyph unicode="." horiz-adv-x="669" d="M123 190q0 93 62.5 148t160.5 55q89 0 145 -57.5t56 -134.5q0 -92 -57 -154.5t-156 -62.5q-98 0 -154.5 55.5t-56.5 150.5z" />
<glyph unicode="/" horiz-adv-x="821" d="M59 16l543 1452q92 0 170 -45l-534 -1441q-124 0 -179 34z" />
<glyph unicode="0" horiz-adv-x="1288" d="M61 522q0 126 48 225.5t130 161.5t187 94.5t225 32.5q264 0 420 -135t156 -379q0 -126 -44.5 -229t-122 -170.5t-182.5 -104t-227 -36.5q-170 0 -302 62t-210 185.5t-78 292.5zM444 584q0 -99 27 -197.5t82 -169t125 -70.5q76 0 118 90.5t42 221.5q0 96 -25.5 191.5 t-78.5 164t-120 68.5q-73 0 -121.5 -90t-48.5 -209z" />
<glyph unicode="1" horiz-adv-x="847" d="M72 -6q0 98 16 160q66 10 93 27.5t37.5 60.5t10.5 141v268q0 95 -12 139.5t-40 60.5t-89 19q-16 65 -16 160q99 -6 352 -6t352 6q0 -95 -16 -160q-62 -3 -90 -19.5t-40 -60.5t-12 -139v-264q0 -105 11.5 -151.5t39.5 -63t91 -18.5q16 -56 16 -160q-120 6 -352 6 q-241 0 -352 -6z" />
<glyph unicode="2" horiz-adv-x="1032" d="M61 199q70 70 283 245q131 112 173 173t42 133q0 58 -32 92.5t-93 34.5q-63 0 -93.5 -54t-43.5 -194q-106 0 -201 30q7 50 6 138.5t-12 140.5q96 50 204 74t267 24q199 0 295 -63.5t96 -177.5q0 -100 -65 -173.5t-238 -183.5q-102 -64 -170 -110h117q61 0 91.5 3t51 15 t27.5 30t14 56q128 0 178 -18q0 -221 23 -330q-13 -42 -47 -65t-80 -23q-164 4 -383 4q-202 0 -358 -4q-52 79 -52 203z" />
<glyph unicode="3" horiz-adv-x="1040" d="M51 -252q10 84 72 143q49 -37 97 -55t114 -18q120 0 186 60t66 165q0 79 -39.5 123.5t-118.5 44.5q-30 0 -63 -8q-26 27 -39.5 69t-10.5 82q183 219 271 342h-150q-89 0 -125 -28t-71 -129q-124 0 -177 41q12 72 17.5 151t6.5 134t1 167q184 -8 422 -8q239 0 395 8 q51 -79 45 -168q-197 -252 -332 -438q361 -18 361 -334q0 -210 -149.5 -326t-426.5 -116q-239 0 -352 98z" />
<glyph unicode="4" horiz-adv-x="1259" d="M31 262l684 774q151 6 289 -12v-694h104q44 0 71 -14t50 -50q-31 -76 -40 -125.5t-9 -140.5h-176v-291q-183 0 -336 -59q-29 23 -41.5 51t-12.5 80v219h-59q-252 0 -453 -14q-71 139 -71 276zM322 328h292v381z" />
<glyph unicode="5" horiz-adv-x="985" d="M61 -303q0 91 41 143q50 -24 170 -24t194.5 57t74.5 154q0 45 -17 79.5t-60 67.5t-122 60t-197 49q-53 58 -65 139l127 612q174 -10 424 -10q47 0 72.5 30t25.5 83q49 16 176 16q-14 -136 -14 -389q-23 -62 -105 -62q-380 0 -489 -8l-23 -108q189 -27 318 -70.5 t204 -106.5t106.5 -139t31.5 -178q0 -90 -33.5 -165t-90.5 -125.5t-133.5 -85t-161 -50.5t-175.5 -16q-199 0 -279 47z" />
<glyph unicode="6" horiz-adv-x="1204" d="M72 492q0 126 30.5 236t82 190.5t122 146t147 108.5t161 73t160.5 44t149 17q39 -42 32 -150q-199 -41 -309 -138.5t-153 -252.5q110 43 227 43q198 0 310 -102t112 -273q0 -86 -23 -157t-64 -119t-92.5 -83.5t-113.5 -55t-121 -28.5t-121 -9q-261 0 -398.5 119.5 t-137.5 390.5zM461 494q0 -162 43 -251t114 -89q63 0 98.5 59.5t35.5 165.5q0 119 -53.5 191.5t-133.5 72.5q-45 0 -98 -18q-6 -65 -6 -131z" />
<glyph unicode="7" horiz-adv-x="966" d="M41 580q35 143 35 448q94 -4 385 -4q238 0 418 4q47 -56 47 -166q-84 -121 -154 -242t-90 -184q-28 -89 -40 -140t-23 -182.5t-11 -332.5q-83 -19 -168.5 -56.5t-150.5 -84.5q-70 11 -70 161q0 51 8 104t17.5 97t33.5 100.5t39.5 94t53 99.5t56.5 94t67 102t68 98t75 106 h-160q-111 0 -156.5 -29t-72.5 -122q-127 -6 -207 35z" />
<glyph unicode="8" horiz-adv-x="1206" d="M92 330q0 209 193 321q-181 122 -181 299q0 161 132 258t372 97q212 0 338.5 -73.5t126.5 -213.5q0 -89 -49.5 -159.5t-140.5 -106.5q119 -78 175 -170t56 -215q0 -196 -125 -290.5t-379 -94.5q-251 0 -384.5 89t-133.5 259zM483 401q0 -121 39.5 -190.5t106.5 -69.5 q46 0 71 34t25 91q0 161 -223 275q-19 -52 -19 -140zM492 1055q0 -58 39.5 -100.5t144.5 -94.5q29 66 29 146q0 71 -33 115t-88 44q-43 0 -67.5 -29.5t-24.5 -80.5z" />
<glyph unicode="9" horiz-adv-x="1193" d="M61 580q0 105 34 187t87 131.5t125.5 81.5t143 44t145.5 12q128 0 224 -27t167.5 -86.5t108.5 -159.5t37 -239q0 -127 -33 -240.5t-89.5 -198.5t-132.5 -156.5t-160 -120t-174 -83t-172.5 -51.5t-158.5 -20q-40 46 -33 149q415 87 525 424q-104 -39 -222 -39 q-196 0 -309 110t-113 282zM453 639q0 -121 54 -203t132 -82q43 0 98 19q6 55 6 114q0 187 -42.5 282t-114.5 95q-63 0 -98 -59.5t-35 -165.5z" />
<glyph unicode=":" horiz-adv-x="669" d="M123 190q0 93 62.5 148t160.5 55q89 0 145 -57.5t56 -134.5q0 -92 -57 -154.5t-156 -62.5q-98 0 -154.5 55.5t-56.5 150.5zM123 754q0 93 62.5 147.5t160.5 54.5q89 0 145 -57.5t56 -134.5q0 -92 -57 -154.5t-156 -62.5q-98 0 -154.5 55.5t-56.5 151.5z" />
<glyph unicode=";" horiz-adv-x="669" d="M123 754q0 93 62.5 147.5t160.5 54.5q89 0 145 -57.5t56 -134.5q0 -92 -57 -154.5t-156 -62.5q-98 0 -154.5 55.5t-56.5 151.5zM137 27q0 74 6 121.5t27 113.5q169 6 258 66q62 -18 86.5 -63t24.5 -152q0 -129 -62 -262.5t-168 -233.5q-104 6 -164 55q138 156 138 256 q0 38 -38.5 64t-107.5 35z" />
<glyph unicode="&#x3c;" horiz-adv-x="956" d="M84 459q-10 95 43 168l614 493q103 -17 179 -96l-617 -487l551 -392q11 -54 4 -121t-31 -100q-453 346 -743 535z" />
<glyph unicode="=" d="M84 240q0 118 29 182h901q0 -100 -29 -180q-164 2 -424 2q-105 0 -477 -4zM90 618q0 106 29 183h897q0 -117 -29 -180q-164 2 -422 2q-10 0 -475 -5z" />
<glyph unicode="&#x3e;" horiz-adv-x="1067" d="M102 1051q65 65 183 75l630 -501q35 -71 27 -176q-333 -226 -731 -525q-34 41 -46 95t-1 100l586 416z" />
<glyph unicode="?" horiz-adv-x="1099" d="M221 1083q14 172 0 293q196 92 424 92q192 0 287.5 -65t95.5 -184q0 -60 -18.5 -110t-48 -85t-65 -66.5t-71 -61.5t-65 -61.5t-48 -74.5t-18.5 -94q0 -75 31 -170q-32 -18 -84.5 -28.5t-99.5 -10.5q-52 31 -87.5 106t-35.5 156q0 70 23 125t55 90t64.5 68t55.5 76.5 t23 97.5q0 69 -26 102t-66 33q-29 0 -49 -21.5t-38 -83.5t-30 -170q-125 0 -209 47zM410 190q0 93 62.5 148t160.5 55q89 0 145 -57.5t56 -134.5q0 -92 -57 -154.5t-156 -62.5q-98 0 -154.5 55.5t-56.5 150.5z" />
<glyph unicode="@" horiz-adv-x="2050" d="M164 467q0 184 63.5 344.5t181.5 281t298 190t399 69.5q195 0 346.5 -50.5t245 -140.5t141 -208t47.5 -259q0 -327 -145 -519.5t-395 -192.5q-85 0 -140 54t-55 146v8q-119 -208 -336 -208q-303 0 -303 438q0 116 36 217t95.5 170.5t137.5 109t161 39.5q123 0 240 -24 q209 0 288 24q26 -14 38 -32.5t17 -55t5 -108.5v-293q0 -110 6 -165t18 -72t35 -17q15 0 31 13.5t32 45t28.5 78t20 119.5t7.5 162q0 95 -21 177.5t-69 155.5t-120 124.5t-180.5 81.5t-244.5 30q-174 0 -312 -56t-225 -155t-132.5 -228.5t-45.5 -281.5q0 -119 25.5 -225 t82.5 -200t140.5 -161.5t207.5 -107t276 -39.5q173 0 321 53t252 160q59 -21 100 -98q-95 -129 -285 -202t-415 -73q-184 0 -333 43t-253.5 120.5t-175.5 187.5t-104 242.5t-33 287.5zM901 498q0 -295 90 -295q120 0 164 383l4 170q-57 43 -123 43q-54 0 -80.5 -21 t-40.5 -86t-14 -194z" />
<glyph unicode="A" horiz-adv-x="1468" d="M20 -6q0 93 21 160q50 9 81.5 48.5t82.5 157.5l434 1024q57 13 156 13l454 -998q48 -106 78 -157t51.5 -68t53.5 -20q16 -56 16 -160q-82 6 -322 6q-282 0 -360 -6q0 94 16 160q67 14 81 50q4 11 4 26q0 32 -21 79l-15 31q-257 0 -464 -21l-5 -8q-11 -31 -11 -61 q0 -34 24 -62q23 -27 65 -34q17 -73 17 -160q-71 6 -240 6q-135 0 -197 -6zM426 473h348l-78 174q-67 149 -102 283q-48 -155 -100 -283z" />
<glyph unicode="B" horiz-adv-x="1460" d="M61 -6q0 94 17 160q58 4 85 22.5t38.5 64t11.5 142.5v623q0 58 -3.5 93t-11 60.5t-25 39t-39 20.5t-58.5 12q-15 61 -15 160q89 -7 222 -7q53 0 230.5 2.5t238.5 2.5q216 0 344 -37.5t178.5 -105t50.5 -175.5q0 -121 -85.5 -205.5t-240.5 -107.5q210 -12 305 -104.5 t95 -256.5q0 -397 -647 -397q-375 0 -691 -6zM623 365q0 -125 37 -169t104 -44q78 0 131 59.5t53 163.5q0 138 -67 195t-207 57h-51v-262zM623 797h73q102 0 160.5 56t58.5 163q0 99 -54.5 157t-141.5 58q-50 0 -96 -19v-415z" />
<glyph unicode="C" horiz-adv-x="1298" d="M72 698q0 169 58 305.5t156 222.5t224 131.5t266 45.5q229 0 451 -107q-23 -135 -23 -317q-25 -14 -86.5 -21.5t-116.5 -7.5q-3 295 -217 295q-64 0 -115 -27t-83.5 -72.5t-54 -109.5t-30.5 -134t-9 -150q0 -126 23.5 -229t71 -182.5t126.5 -123t184 -43.5q148 0 303 86 q43 -37 57 -113q-82 -72 -204.5 -118.5t-276.5 -46.5q-209 0 -369.5 90t-247.5 253t-87 373z" />
<glyph unicode="D" horiz-adv-x="1513" d="M61 -6q0 94 17 160q58 4 85 22.5t38.5 64t11.5 142.5v623q0 58 -3.5 93t-11 60.5t-25 39t-39 20.5t-58.5 12q-15 61 -15 160q46 -2 428 -7q142 5 216 5q91 0 167 -7.5t153.5 -26.5t137.5 -51t114 -83t89 -119t55.5 -163t20.5 -212q0 -137 -31.5 -249t-80.5 -186 t-119 -129.5t-137 -85.5t-143.5 -48.5t-130.5 -23.5t-106 -5q-351 0 -633 -6zM623 393q0 -140 33 -189.5t126 -49.5q16 0 33 3.5t42.5 16.5t47.5 34.5t45.5 62.5t40 95.5t27 138t10.5 185.5q0 545 -323 545q-45 0 -82 -16v-826z" />
<glyph unicode="E" horiz-adv-x="1323" d="M61 -6q0 94 17 160q58 4 85 22.5t38.5 64t11.5 142.5v623q0 58 -3.5 93t-11 60.5t-25 39t-39 20.5t-58.5 12q-15 61 -15 160q222 -7 555 -7q352 0 553 7q2 -89 13 -193.5t30 -171.5q-98 -37 -206 -37q-11 60 -27.5 100.5t-47.5 74.5t-82.5 50.5t-125.5 16.5h-100v-465h2 q97 0 130.5 31.5t35.5 113.5q65 25 180 25q-8 -132 -8 -240q0 -125 8 -243q-117 0 -176 20q-7 83 -42.5 111t-127.5 28h-2v-219q0 -140 33 -189.5t126 -49.5h35q104 0 165 64.5t101 213.5q67 -6 124.5 -25.5t84.5 -44.5q-46 -139 -63 -366q-242 4 -535 4q-351 0 -633 -6z " />
<glyph unicode="F" horiz-adv-x="1263" d="M61 -6q0 101 15 160q58 4 85.5 22t39.5 64.5t12 142.5v623q0 96 -10 138.5t-36 60.5t-87 26q-19 78 -19 160q222 -7 555 -7q373 0 574 7q2 -89 13 -193.5t30 -171.5q-98 -37 -207 -37q-11 60 -27.5 100.5t-47.5 74.5t-82.5 50.5t-125.5 16.5h-120v-537h63q97 0 130.5 32 t35.5 114q63 24 180 24q-8 -132 -8 -239q0 -126 8 -244q-117 0 -176 20q-7 84 -42.5 112t-127.5 28h-63v-138q0 -133 47.5 -186.5t175.5 -62.5q18 -51 18 -160q-117 6 -389 6q-273 0 -414 -6z" />
<glyph unicode="G" horiz-adv-x="1411" d="M72 702q0 170 58.5 305.5t159 221t229.5 130t276 44.5q123 0 248.5 -30.5t224.5 -76.5q-23 -135 -23 -317q-59 -29 -203 -29q-7 156 -72 224.5t-188 68.5q-78 0 -137 -41t-92.5 -111.5t-49.5 -155.5t-16 -183q0 -176 39.5 -313.5t114 -215.5t172.5 -78q44 0 68 9 q21 8 34 21t21 44t8 82v70q0 90 -27.5 119t-115.5 34q-13 70 -13 158q80 -6 281 -6q205 0 291 4q0 -97 -12 -156q-50 -4 -63 -27t-13 -94v-49q0 -79 7 -119.5t28 -93.5q-98 -72 -234.5 -115.5t-286.5 -43.5q-217 0 -379.5 91t-248.5 254t-86 375z" />
<glyph unicode="H" horiz-adv-x="1642" d="M61 -6q0 78 21 160q84 6 107.5 47t23.5 182v623q0 96 -10 138.5t-36 60.5t-87 26q-19 78 -19 160q119 -7 367 -7q202 0 346 7q0 -107 -18 -160q-60 -6 -86 -24t-36.5 -62t-10.5 -139v-213h397v213q0 96 -10 138.5t-36 60.5t-87 26q-19 78 -19 160q119 -7 367 -7 q203 0 346 7q0 -107 -18 -160q-60 -6 -86 -24t-36.5 -62t-10.5 -139v-623q0 -97 11.5 -142.5t38.5 -64t85 -22.5q16 -59 16 -160q-91 6 -326 6q-243 0 -387 -6q0 78 21 160q84 6 107.5 47t23.5 182v260q-230 0 -397 -8v-252q0 -97 11.5 -142.5t38.5 -64t85 -22.5 q16 -59 16 -160q-92 6 -325 6q-244 0 -388 -6z" />
<glyph unicode="I" horiz-adv-x="835" d="M61 -6q0 78 21 160q84 6 107.5 47t23.5 182v623q0 96 -10 138.5t-36 60.5t-87 26q-19 78 -19 160q119 -7 367 -7q202 0 346 7q0 -107 -18 -160q-60 -6 -86 -24t-36.5 -62t-10.5 -139v-623q0 -97 11.5 -142.5t38.5 -64t85 -22.5q16 -59 16 -160q-92 6 -325 6 q-244 0 -388 -6z" />
<glyph unicode="J" horiz-adv-x="804" d="M-31 -358q80 53 123.5 107.5t66.5 145t23 232.5v872q0 100 -10.5 145t-36.5 63t-86 24q-18 61 -18 160q100 -7 356 -7q249 0 356 7q0 -102 -18 -160q-47 -4 -73.5 -15.5t-40 -42t-16.5 -66.5t-3 -108v-723q0 -122 -12.5 -212t-47 -179t-95 -156t-158 -128t-234.5 -111 q-66 50 -76 152z" />
<glyph unicode="K" horiz-adv-x="1570" d="M61 -6q0 78 21 160q84 6 107.5 47t23.5 182v623q0 96 -10 138.5t-36 60.5t-87 26q-19 78 -19 160q119 -7 367 -7q202 0 346 7q0 -107 -18 -160q-60 -6 -86 -24t-36.5 -62t-10.5 -139v-238l276 274q98 98 98 147q0 16 -10 26q-14 14 -45 16q-18 58 -18 160q89 -7 231 -7 q227 0 313 7q0 -102 -22 -160q-147 -9 -289 -154l-219 -227q184 -228 344 -490q66 -106 127 -151.5t141 -54.5q0 -105 -24 -154q-387 0 -518 -18q-190 393 -385 630v-229q0 -97 11.5 -142.5t38.5 -64t85 -22.5q16 -59 16 -160q-92 6 -325 6q-244 0 -388 -6z" />
<glyph unicode="L" horiz-adv-x="1312" d="M61 -6q0 94 17 160q58 4 85 22.5t38.5 64t11.5 142.5v623q0 58 -3.5 93t-11 60.5t-25 39t-39 20.5t-58.5 12q-15 61 -15 160q226 -7 357 -7q212 0 356 7q0 -117 -18 -160q-60 -6 -86 -24t-36.5 -62t-10.5 -139v-613q0 -140 33 -189.5t126 -49.5h35q104 0 165 64.5 t101 213.5q67 -6 124.5 -25.5t84.5 -44.5q-46 -139 -63 -366q-242 4 -535 4q-351 0 -633 -6z" />
<glyph unicode="M" horiz-adv-x="2043" d="M20 -6q0 93 17 160q54 3 87 33t55 103.5t34 205.5l45 499q5 46 5 81v20q-2 42 -8 68t-23.5 41t-40.5 20.5t-60 5.5q-16 56 -16 160q107 -7 286 -7q207 0 279 7l371 -885l319 885q130 -7 295 -7q170 0 277 7q0 -102 -17 -160q-93 1 -119 -49q-17 -32 -17 -104q0 -37 5 -85 l57 -561q8 -77 16 -122t18 -76.5t28.5 -46t38.5 -21t57 -10.5q14 -66 14 -162q-79 6 -399 6q-168 0 -315 -6q0 72 18 160q41 5 63 12t38.5 21.5t20.5 44.5q3 24 3 54v16q-1 40 -8 108l-60 563l-383 -975q-47 -16 -153 -16l-432 985l-49 -463q-9 -87 -9 -146q0 -4 -1 -8 q0 -54 7 -90q7 -40 24 -62t40 -31.5t59 -12.5q17 -67 17 -160q-62 6 -225 6q-136 0 -259 -6z" />
<glyph unicode="N" horiz-adv-x="1456" d="M31 0q0 103 16 154q67 7 100.5 31t49.5 84t16 177v689l-29 39q-17 28 -44.5 39.5t-92.5 17.5q-16 60 -16 160q93 -7 272 -7q168 0 232 7l563 -777v324q0 121 -13.5 178t-48.5 82t-112 33q-15 59 -15 160q100 -7 269 -7q131 0 217 7q0 -103 -15 -160q-56 -7 -81.5 -30.5 t-36.5 -81.5t-11 -181v-938q-62 -18 -186 -18l-698 946v-482q0 -120 13.5 -178t46 -82.5t101.5 -31.5q15 -56 15 -160q-86 6 -248 6q-21 0 -83.5 1t-110.5 1t-70 -2z" />
<glyph unicode="O" horiz-adv-x="1558" d="M72 698q0 214 90 375t249.5 245.5t366.5 84.5q212 0 373 -83t248.5 -237t87.5 -358q0 -219 -86.5 -387t-248 -262t-374.5 -94q-218 0 -378.5 90t-244 251t-83.5 375zM492 748q0 -126 18.5 -233.5t55 -192.5t97.5 -133t140 -48q126 0 195 145t69 396q0 158 -37 285.5 t-109.5 204.5t-168.5 77q-125 0 -192.5 -130t-67.5 -371z" />
<glyph unicode="P" horiz-adv-x="1388" d="M61 -6q0 101 15 160q58 4 85.5 22t39.5 64.5t12 142.5v623q0 96 -10 138.5t-36 60.5t-87 26q-19 78 -19 160q226 -7 355 -7q53 0 196 2.5t248 2.5q99 0 177 -23.5t130 -64t86 -98t49 -122t15 -139.5q0 -215 -134 -358.5t-352 -143.5q-85 0 -141 21q-4 25 -4 48 q0 54 23 99q16 -4 45 -4q73 0 123.5 73t50.5 228q0 143 -56.5 232.5t-160.5 89.5q-50 0 -88 -15v-809q0 -133 47.5 -186.5t175.5 -62.5q18 -51 18 -160q-117 6 -389 6q-273 0 -414 -6z" />
<glyph unicode="Q" horiz-adv-x="1558" d="M72 698q0 214 90 375t249.5 245.5t366.5 84.5q212 0 373 -83t248.5 -237t87.5 -358q0 -247 -109 -427.5t-305 -260.5q70 -25 139 -68t112.5 -74t117.5 -53q62 -19 138 -19q14 0 28 1v-21q0 -82 -21 -151q-202 -18 -379 -101q-57 25 -101.5 76t-74 106t-61 108t-80 92 t-113.5 49q-218 0 -378.5 90t-244 251t-83.5 375zM492 748q0 -126 18.5 -233.5t55 -192.5t97.5 -133t140 -48q126 0 195 145t69 396q0 158 -37 285.5t-109.5 204.5t-168.5 77q-125 0 -192.5 -130t-67.5 -371z" />
<glyph unicode="R" horiz-adv-x="1470" d="M61 -6q0 94 17 160q58 4 85 22.5t38.5 64t11.5 142.5v627q0 58 -3.5 93t-11 60.5t-25 39t-39 20.5t-58.5 12q-15 61 -15 158q185 -9 353 -9q27 0 175.5 5.5t248.5 5.5q129 0 228.5 -30.5t160 -84t91 -122t30.5 -148.5q0 -172 -78.5 -280.5t-208.5 -143.5 q69 -25 109 -78.5t118 -210.5q42 -80 72.5 -106.5t89.5 -30.5q0 -82 -23 -162q-357 0 -469 -16q-86 250 -112 313q-39 103 -70 153t-78 82l-75 2v-129q0 -110 10.5 -163t29.5 -68.5t60 -17.5q14 -41 14 -160q-117 6 -358 6q-177 0 -318 -6zM623 719q41 -8 61 -8 q96 0 166 65.5t70 184.5q0 130 -57 202t-154 72q-45 0 -86 -14v-502z" />
<glyph unicode="S" horiz-adv-x="1095" d="M57 94q27 133 27 348q98 25 246 25q12 -186 51.5 -251.5t142.5 -65.5q95 0 143 39.5t48 97.5q0 38 -21.5 70t-58 56.5t-83.5 48t-99 49t-104.5 54.5t-99.5 69t-83.5 88t-58 116t-21.5 149q0 108 37.5 189.5t105.5 130.5t155.5 72.5t193.5 23.5q108 0 215 -22t161 -54 q0 -218 15 -323q-74 -43 -230 -43q-24 155 -74.5 216.5t-134.5 61.5q-68 0 -109.5 -31t-41.5 -92q0 -53 37.5 -96t97 -74t131.5 -61.5t144 -70t131.5 -88.5t97 -127t37.5 -177q0 -204 -149.5 -322t-420.5 -118q-127 0 -227.5 27.5t-200.5 84.5z" />
<glyph unicode="T" horiz-adv-x="1472" d="M51 999q22 84 36.5 195t14.5 197q201 -7 641 -7q331 0 629 7q0 -196 49 -390q-77 -32 -213 -32q-29 142 -79 202t-152 60h-41v-848q0 -74 7 -114.5t31 -67t60 -35.5t103 -12q20 -53 20 -160q-114 6 -399 6q-338 0 -473 -6q0 82 24 160q68 3 106.5 12.5t65 35t36 67.5 t9.5 114v848h-4q-109 0 -167 -61.5t-93 -200.5q-148 0 -211 30z" />
<glyph unicode="U" horiz-adv-x="1427" d="M41 1391q96 -7 278 -7q311 0 426 7q0 -104 -12 -160q-36 -6 -57 -14t-37 -22t-23 -41t-10.5 -63.5t-3.5 -95.5v-471q0 -192 56.5 -284.5t172.5 -92.5q50 0 98.5 22.5t78.5 66.5q57 86 57 352v368q0 150 -29 205t-106 70q-12 82 -12 160q96 -7 229 -7q130 0 219 7 q0 -100 -16 -160q-79 -10 -104 -61.5t-25 -194.5v-408q0 -186 -27 -297.5t-96 -179.5q-116 -108 -363 -108q-155 0 -258.5 28.5t-167 91.5t-90 156t-26.5 231v506q0 59 -4 96.5t-12 63.5t-25.5 40.5t-38.5 22t-56 13.5q-16 69 -16 160z" />
<glyph unicode="V" horiz-adv-x="1447" d="M20 1391q122 -7 334 -7q195 0 348 7q0 -107 -16 -160q-76 -11 -84 -53q-1 -6 -1 -15q0 -44 40 -133q64 -141 87.5 -194.5t66 -162.5t75.5 -212q117 300 215 614q12 31 12 58q0 25 -9 45q-19 44 -80 53q-17 60 -17 160q82 -7 234 -7q130 0 202 7q0 -74 -20 -160 q-55 -11 -89 -53.5t-75 -153.5q-175 -477 -387 -1024q-47 -18 -188 -18q-235 567 -449 1005q-70 144 -103.5 189.5t-78.5 54.5q-17 59 -17 160z" />
<glyph unicode="W" horiz-adv-x="2017" d="M20 1391q116 -7 345 -7q240 0 352 7q0 -91 -17 -160q-64 -9 -90 -31q-23 -20 -24 -60v-8q2 -48 37 -141q55 -152 133 -407l278 800q62 17 172 17q180 -436 336 -844l111 381q27 101 27 161q0 33 -8 55q-23 60 -124 77q-20 52 -20 160q100 -7 246 -7q127 0 223 7 q0 -106 -19 -160q-57 -21 -92 -79t-78 -214l-264 -938q-64 -18 -221 -18q-152 402 -324 817l-276 -803q-62 -14 -213 -14q-178 579 -313 974q-62 182 -86.5 223.5t-75.5 45.5q-15 53 -15 166z" />
<glyph unicode="X" horiz-adv-x="1495" d="M41 -6q0 116 18 164q93 24 163 78.5t153 171.5l168 239q-151 240 -230 359q-63 95 -100 139.5t-63.5 60t-67.5 23.5q-19 63 -19 162q126 -7 424 -7q143 0 301 5q0 -84 -14 -158q-46 -8 -61.5 -22.5t-3 -55t62.5 -117.5l98 -149l74 117q50 78 66 126q8 25 8 43q0 17 -7 29 q-15 24 -61 29q-14 53 -14 160q119 -7 254 -7q142 0 231 7q0 -103 -14 -160q-96 -25 -142.5 -63.5t-125.5 -159.5l-176 -267q95 -150 151 -247q70 -116 112 -178.5t79 -98t62 -46t69 -17.5q18 -53 18 -160q-88 6 -383 6q-240 0 -362 -4q0 94 14 158q38 3 52.5 11.5t11 39.5 t-31 84.5t-87.5 154.5l-37 62l-70 -103q-65 -97 -85 -147q-12 -29 -12 -48q0 -14 6 -23q14 -21 69 -31q16 -58 16 -160q-105 6 -260 6q-172 0 -254 -6z" />
<glyph unicode="Y" horiz-adv-x="1298" d="M20 1389q123 -5 345 -5q239 0 344 5q0 -74 -15 -158q-31 -4 -47.5 -17.5t-18.5 -36.5t4.5 -50t22.5 -66q111 -279 144 -369q85 219 155 381q19 44 19 77q0 18 -5 34q-16 43 -73 47q-18 67 -18 158q93 -5 210 -5q109 0 191 5q0 -88 -18 -158q-39 -8 -70.5 -43.5 t-73.5 -128.5l-250 -551v-102q0 -80 6.5 -124t30 -73t60.5 -39.5t106 -15.5q21 -67 21 -160q-119 6 -439 6q-55 0 -436 -6q4 107 25 160q54 4 85 8.5t58.5 16t39.5 26t21 45t11 65t2 93.5v106l-285 596q-54 110 -135 121q-17 64 -17 158z" />
<glyph unicode="Z" horiz-adv-x="1200" d="M61 139q143 254 219.5 391t177.5 327t191 374h-108q-66 0 -106.5 -24t-71 -87.5t-58.5 -185.5q-153 0 -217 29q51 181 51 426q128 -5 479 -5q299 0 455 5q37 -61 43 -144q-289 -597 -575 -1091h73q93 0 146.5 22.5t90.5 82t67 175.5q135 -9 221 -59q-20 -77 -38.5 -191.5 t-19.5 -189.5q-160 6 -528 6q-263 0 -451 -6q-41 57 -41 145z" />
<glyph unicode="[" horiz-adv-x="636" d="M72 -551v2071q74 -2 196 -2q156 0 248 2q12 -24 17.5 -55t6.5 -52.5t1 -62.5q-134 -11 -171.5 -41.5t-37.5 -130.5v-1375q0 -107 33.5 -140.5t152.5 -39.5q11 -30 16 -60.5t6 -51t1 -62.5q-180 4 -224 4q-49 0 -245 -4z" />
<glyph unicode="\" horiz-adv-x="829" d="M49 1452q59 16 156 16h20l545 -1468q-60 -18 -174 -18z" />
<glyph unicode="]" horiz-adv-x="636" d="M96 -551q0 42 1 62.5t6 51t16 60.5q119 6 152.5 39.5t33.5 140.5v1375q0 100 -37.5 130.5t-171.5 41.5q0 41 1 62.5t6.5 52.5t17.5 55q92 -2 248 -2q122 0 196 2v-2071q-196 4 -246 4q-43 0 -223 -4z" />
<glyph unicode="^" horiz-adv-x="1138" d="M76 897l416 533q50 20 147 20q195 -309 420 -621q-62 -50 -166 -43l-324 459q-230 -263 -389 -491q-39 25 -70 67t-34 76z" />
<glyph unicode="_" horiz-adv-x="1306" d="M123 -313q0 104 29 166h1032q0 -112 -29 -164q-238 2 -528 2q-70 0 -504 -4z" />
<glyph unicode="`" horiz-adv-x="544" d="M-57 1403q155 65 336 65q55 -177 141 -340q-73 -36 -209 -36q-47 66 -77.5 105.5t-81.5 96.5t-109 109z" />
<glyph unicode="a" horiz-adv-x="1206" d="M51 231q0 57 23.5 105t58.5 81t91.5 61t104.5 44.5t117 31.5t110 21.5t101 14.5q4 0 5.5 0.5t4.5 1t5 0.5q0 70 -10.5 110.5t-36.5 69.5q-37 43 -105 43q-124 0 -147 -223q-85 0 -131.5 4.5t-91.5 21.5q3 38 3 76q0 95 -18 189q195 73 440 73q163 0 252.5 -23.5 t139.5 -78.5q44 -46 69 -121t25 -209v-135q0 -112 20.5 -142.5t94.5 -33.5q5 -27 5 -52q0 -61 -28 -110q-201 -3 -369 -69q-42 17 -59.5 45t-17.5 71q0 51 14 103q-46 -96 -100 -140q-101 -75 -242 -75q-328 0 -328 245zM430 295q0 -86 78 -86q63 0 113.5 59t50.5 158v35 q-130 -26 -186 -66t-56 -100z" />
<glyph unicode="b" horiz-adv-x="1327" d="M-10 1247q0 105 26 154q144 0 266.5 20t176.5 47q71 -32 71 -131v-354q0 -102 -14 -176q30 40 68 70q43 33 113 56t149 23q91 0 165.5 -24t132.5 -73t90 -129.5t32 -186.5q0 -255 -164 -408t-436 -153q-179 0 -344.5 42t-229.5 109q49 57 49 197v774q0 73 -30.5 103.5 t-120.5 39.5zM530 197q55 -70 129 -70q31 0 58.5 8t57.5 31.5t51 61.5t34.5 103.5t13.5 151.5q0 42 -4 78.5t-15 73t-28 62.5t-46 42.5t-66 16.5q-77 0 -131 -76t-54 -236v-247z" />
<glyph unicode="c" horiz-adv-x="991" d="M61 465q0 94 33 180.5t95.5 156.5t163.5 112t227 42q221 0 370 -79q-26 -110 -26 -271q-76 -35 -215 -35q0 116 -32 177t-87 61q-69 0 -107.5 -88.5t-38.5 -226.5q0 -61 15 -116.5t45 -103.5t83 -76t122 -28q125 0 204 47q48 -51 48 -131q-54 -49 -148.5 -76.5 t-208.5 -27.5q-259 0 -401 120t-142 363z" />
<glyph unicode="d" horiz-adv-x="1323" d="M61 395q0 254 166.5 407.5t438.5 153.5q65 0 131 -14v162q0 73 -31 103.5t-121 39.5q0 104 27 154q144 0 266 20t176 47q72 -32 72 -131v-936q0 -64 3.5 -97.5t17 -55t34 -27.5t59.5 -8q5 -28 5 -54q0 -61 -27 -108q-201 -3 -369 -69q-78 30 -78 116q0 15 9 76 q-47 -75 -97 -113q-43 -33 -113 -56t-149 -23q-91 0 -165.5 24t-132.5 73t-90 129.5t-32 186.5zM453 455q0 -273 159 -273q77 0 131 75.5t54 234.5v249q-55 70 -129 70q-31 0 -58.5 -8t-57.5 -31t-51 -61t-34.5 -103.5t-13.5 -152.5z" />
<glyph unicode="e" horiz-adv-x="1116" d="M61 453q0 246 145 374.5t398 128.5q114 0 203.5 -40t142.5 -106q54 -64 80 -144q24 -71 23 -147v-17q-15 -71 -68 -121q-312 0 -526 -12q53 -199 270 -199q65 0 139.5 22.5t118.5 55.5q23 -13 39 -55t16 -87q-174 -124 -424 -124q-120 0 -214.5 23.5t-158 65t-105.5 101 t-60.5 129t-18.5 152.5zM444 524h275q0 127 -33.5 204t-97.5 77q-139 0 -144 -281z" />
<glyph unicode="f" horiz-adv-x="901" d="M55 756q0 113 29 162h125v59q0 163 67 275t180.5 164t266.5 52q86 0 175 -19.5t134 -47.5q-14 -82 -14 -176q0 -52 4 -107q-36 -16 -108 -22q-50 -5 -95 -5q-21 0 -41 1q0 102 -27 161.5t-71 59.5q-31 0 -48 -20t-25.5 -77.5t-8.5 -168.5v-129h240q0 -124 -21 -170 q-120 0 -219 -31v-314q0 -133 47.5 -186.5t175.5 -62.5q19 -53 19 -160q-117 6 -369 6q-273 0 -414 -6q0 101 15 160q58 4 85.5 22t39.5 64.5t12 142.5v348q-85 25 -154 25z" />
<glyph unicode="g" horiz-adv-x="1196" d="M41 -270q0 62 37.5 113.5t107.5 78.5q-80 65 -80 197q0 63 42 122.5t106 98.5q-186 81 -186 287q0 157 126.5 243t366.5 86q101 0 178 -18h400q26 -61 26 -184q-99 41 -182 49q39 -46 57.5 -94.5t18.5 -81.5q0 -156 -131 -247t-359 -91q-89 0 -166 12q-34 -21 -34 -43 q0 -12 5.5 -19t26.5 -14.5t63 -11t114.5 -6t181.5 -2.5q379 0 379 -281q0 -129 -83 -228t-228.5 -152.5t-329.5 -53.5q-135 0 -226.5 17t-141 50t-69.5 74.5t-20 98.5zM336 -221q0 -67 48.5 -98t156.5 -31q124 0 195 34.5t71 90.5q0 23 -10.5 34t-49.5 18t-116 7 q-165 0 -273 21q-22 -31 -22 -76zM451 647q0 -105 35.5 -160t97.5 -55q47 0 75.5 48t28.5 134q0 98 -34 157.5t-99 59.5q-53 0 -78.5 -51.5t-25.5 -132.5z" />
<glyph unicode="h" horiz-adv-x="1431" d="M41 -6q0 107 20 160q79 0 105.5 37t26.5 141v772q0 73 -31 103.5t-121 39.5q0 104 27 154q144 0 266 20t176 47q72 -32 72 -131v-512q0 -41 -25 -125q44 102 80 138q108 108 276 108q71 0 133.5 -19t113.5 -58t80.5 -105t29.5 -152v-280q0 -102 18.5 -140t69.5 -38 q22 -55 22 -160q-183 6 -284 6q-242 0 -334 -6q0 106 20 160q99 0 99 200v142q0 115 -30 163t-97 48q-75 0 -123.5 -89.5t-48.5 -228.5v-57q0 -101 24 -139.5t72 -38.5q22 -56 22 -160q-92 6 -313 6q-255 0 -346 -6z" />
<glyph unicode="i" horiz-adv-x="798" d="M55 -6q0 107 19 160q81 4 107 39.5t26 138.5v260q0 73 -31 103.5t-121 39.5q0 104 27 154q144 0 266 20t176 47q72 -32 72 -131v-493q0 -103 26.5 -138.5t108.5 -39.5q17 -55 17 -160q-76 6 -347 6q-273 0 -346 -6zM141 1219q0 88 62 135t162 47q109 0 165 -45t56 -133 q0 -76 -63.5 -123t-172.5 -47q-96 0 -152.5 45.5t-56.5 120.5z" />
<glyph unicode="j" horiz-adv-x="679" d="M31 -358q100 100 138 194t38 240v516q0 73 -31 103.5t-121 39.5q0 104 27 154q144 0 266 20t176 47q72 -32 72 -131v-655q0 -103 -31 -199t-79.5 -168.5t-112.5 -136t-124.5 -105t-121.5 -71.5q-38 20 -64 61t-32 91zM164 1219q0 88 61.5 135t161.5 47q109 0 165 -45 t56 -133q0 -76 -63 -123t-172 -47q-96 0 -152.5 45.5t-56.5 120.5z" />
<glyph unicode="k" horiz-adv-x="1355" d="M41 -6q0 110 18 160q81 4 107.5 39.5t26.5 138.5v772q0 73 -31 103.5t-121 39.5q0 104 27 154q144 0 266 20t176 47q72 -32 72 -131v-796l135 118q74 65 74 91q0 16 -11.5 23.5t-42.5 10.5q-26 72 -26 158q98 -4 348 -4q86 0 192 4q0 -90 -24 -158q-93 -8 -145.5 -31 t-123.5 -91l-75 -70q165 -147 303 -346q43 -59 63 -72.5t76 -19.5q0 -89 -29 -154q-271 0 -387 -18q-94 151 -327 432v-82q0 -99 18.5 -135.5t73.5 -42.5q16 -45 16 -160q-76 6 -315 6q-261 0 -334 -6z" />
<glyph unicode="l" horiz-adv-x="774" d="M41 -6q0 110 18 160q81 4 107.5 39.5t26.5 138.5v792q-3 59 -36 86.5t-116 36.5q0 104 27 154q144 0 266 20t176 47q72 -32 72 -131v-1005q0 -103 26.5 -138.5t108.5 -39.5q16 -52 16 -160q-77 6 -346 6q-273 0 -346 -6z" />
<glyph unicode="m" horiz-adv-x="2113" d="M55 -6q0 99 21 158q82 6 106.5 41t24.5 139v190q0 56 -2.5 86t-10 56.5t-24.5 38.5t-42.5 20t-68.5 12q0 90 29 154q130 0 253 18.5t185 48.5q31 -10 50.5 -43.5t19.5 -87.5q0 -32 -25 -127q44 104 80 140q114 114 277 114q103 0 181.5 -41t121.5 -114q28 -48 33 -82 q43 94 86 131q97 94 247 94q180 0 267.5 -85.5t87.5 -274.5v-150q0 -70 0.5 -106t4 -72.5t8 -50.5t16 -26.5t25 -15.5t36.5 -5q20 -59 20 -160q-74 6 -286 6q-219 0 -330 -6q0 92 16 160q38 2 58 21.5t31.5 75t11.5 159.5v92q0 115 -27 160t-80 45q-89 0 -135.5 -85 t-46.5 -233v-45q0 -107 20 -146.5t82 -43.5q21 -59 21 -160q-63 6 -312 6q-247 0 -321 -6q0 101 20 160q46 3 66 21t29.5 75t9.5 180v94q0 100 -28.5 141.5t-92.5 41.5q-76 0 -124 -92.5t-48 -225.5v-45q0 -113 18.5 -149.5t79.5 -40.5q21 -56 21 -160q-63 6 -338 6 q-265 0 -322 -6z" />
<glyph unicode="n" horiz-adv-x="1445" d="M55 -6q0 104 21 160q78 0 104.5 37t26.5 141v221q0 55 -4 83.5t-19.5 52t-43.5 32.5t-79 14q0 104 27 154q143 0 263.5 20t174.5 47q70 -31 70 -131q0 -41 -25 -125q44 102 80 138q108 108 277 108q71 0 133.5 -19t113 -58t80 -105t29.5 -152v-280q0 -102 18.5 -140 t69.5 -38q23 -58 23 -160q-183 6 -285 6q-242 0 -334 -6q0 103 21 160q98 0 98 200v142q0 115 -30 163t-97 48q-75 0 -123.5 -89.5t-48.5 -228.5v-57q0 -101 24 -139.5t72 -38.5q23 -59 23 -160q-91 6 -314 6q-255 0 -346 -6z" />
<glyph unicode="o" horiz-adv-x="1245" d="M61 451q0 126 44 224t122 158.5t180 91.5t222 31q273 0 414 -129t141 -342q0 -240 -152.5 -371.5t-421.5 -131.5q-270 0 -409.5 124t-139.5 345zM451 528q0 -168 51.5 -278.5t146.5 -110.5q67 0 106.5 79t39.5 200q0 188 -58 289.5t-139 101.5q-72 0 -109.5 -79 t-37.5 -202z" />
<glyph unicode="p" horiz-adv-x="1388" d="M51 -502q0 102 15 160q58 4 85.5 22t39.5 64.5t12 142.5v666q0 55 -4 83.5t-19.5 52t-43.5 32.5t-79 14q0 104 27 154q143 0 263.5 20t174.5 47q70 -31 70 -131q32 36 53 52q43 33 113 56t149 23q91 0 165.5 -24t132.5 -73t90 -129.5t32 -186.5q0 -254 -166 -407.5 t-438 -153.5q-65 0 -131 14v-88q0 -133 47.5 -187t175.5 -63q19 -53 19 -160q-117 6 -369 6q-273 0 -414 -6zM592 197q55 -70 129 -70q31 0 58.5 8t57.5 31t51 61t34.5 103.5t13.5 152.5q0 54 -7 99t-24 86t-50 64.5t-79 23.5q-77 0 -130.5 -75.5t-53.5 -234.5v-249z" />
<glyph unicode="q" horiz-adv-x="1325" d="M61 410q0 167 77 291.5t213.5 189.5t314.5 65t323.5 -40t239.5 -111q-27 -69 -36 -137t-9 -207v-533q0 -73 2.5 -114.5t9 -74t22 -47.5t35.5 -23.5t56 -12.5q16 -58 16 -158q-88 6 -379 6q-327 0 -401 -6q0 103 18 158q98 6 145.5 29t67 75t19.5 156v43q0 131 22 217 q-38 -65 -82 -100q-96 -80 -272 -80q-185 0 -293.5 110.5t-108.5 303.5zM453 449q0 -149 39 -211t120 -62q75 0 129 76t54 233v252q-15 33 -49 52.5t-80 19.5q-94 0 -153.5 -87t-59.5 -273z" />
<glyph unicode="r" horiz-adv-x="1067" d="M55 -6q0 101 15 160q58 4 85.5 22t39.5 64.5t12 142.5v170q0 55 -4 83.5t-19.5 52t-43.5 32.5t-79 14q0 104 27 154q143 0 263.5 20t174.5 47q70 -31 70 -131q0 -46 -37 -194q43 122 59 149q47 74 117 120t150 46q82 0 151 -49q-14 -77 -20 -177q-3 -52 -3 -96 q0 -41 3 -75q-64 -29 -217 -29q-2 68 -20.5 99.5t-59.5 31.5q-42 0 -82.5 -70t-40.5 -153v-25q0 -133 47.5 -186.5t175.5 -62.5q19 -53 19 -160q-117 6 -369 6q-273 0 -414 -6z" />
<glyph unicode="s" horiz-adv-x="1009" d="M74 49q9 67 9 141q0 55 -5 113q35 21 94 33t113 12q9 -98 54 -150.5t110 -52.5q43 0 70.5 19.5t27.5 54.5q0 44 -36 75t-140 71q-70 26 -116.5 50.5t-89 61.5t-63 88.5t-20.5 118.5q0 136 110.5 204t309.5 68q222 0 360 -59q-2 -29 -2 -59q0 -79 12 -162 q-76 -47 -202 -47q-25 170 -168 170q-33 0 -52.5 -18t-19.5 -48q0 -27 11.5 -45.5t57.5 -46.5t136 -66q179 -73 246 -138t67 -163q0 -145 -123 -218.5t-354 -73.5q-127 0 -217 16t-180 51z" />
<glyph unicode="t" horiz-adv-x="817" d="M10 756q0 98 29 162h125v235q90 9 179.5 42t143.5 75q37 -15 51 -45.5t15 -98.5v-208h240q0 -85 -21 -164q-126 0 -219 -37v-336q0 -94 9.5 -141.5t29 -63.5t57.5 -16q62 0 117 22q31 -46 31 -131q-44 -31 -128 -50t-175 -19q-168 0 -249 86.5t-81 287.5v375 q-60 25 -154 25z" />
<glyph unicode="u" horiz-adv-x="1329" d="M31 735q0 105 26 154q142 0 253.5 19.5t166.5 47.5q70 -31 70 -131v-401q0 -131 21 -179t67 -48q70 0 119 79t49 228v59q0 102 -28 138.5t-118 43.5q0 104 27 154q150 0 269 16t169 41q70 -31 70 -131v-424q0 -84 9 -121t31.5 -51t74.5 -16q5 -27 5 -52q0 -61 -28 -110 q-201 -3 -369 -69q-42 17 -59.5 45t-17.5 71q0 45 14 103q-28 -83 -78 -127q-43 -38 -120 -63t-173 -25q-163 0 -243 88.5t-80 296.5v182q0 104 -22.5 138.5t-104.5 43.5z" />
<glyph unicode="v" horiz-adv-x="1193" d="M20 944q95 -6 320 -6q245 0 344 6q0 -74 -22 -160q-68 -10 -78 -36q-2 -6 -3 -14q0 -28 27 -83q70 -141 125 -278q31 92 105 278q20 49 20 76q0 13 -5 22q-14 26 -79 35q-22 86 -22 160q80 -6 206 -6q128 0 216 6q0 -108 -27 -160q-54 -12 -82.5 -38.5t-56.5 -92.5 l-279 -671q-30 -4 -60 -4q-33 0 -67 4q-66 8 -104 30q-152 327 -330 654q-34 62 -58.5 84.5t-66.5 33.5q-23 75 -23 160z" />
<glyph unicode="w" horiz-adv-x="1632" d="M20 944q156 -6 299 -6q194 0 347 6q0 -77 -25 -158q-58 -4 -64 -28q-1 -4 -1 -10q0 -30 24 -109q41 -143 55 -219l205 530q117 0 168 -18q124 -267 219 -529l58 236q9 37 9 63q0 24 -8 40q-16 32 -73 44q-23 70 -23 158q80 -6 197 -6t205 6q0 -97 -25 -158 q-47 -9 -74 -38t-47 -95l-196 -671q-183 0 -234 18q-58 119 -84 174.5t-56.5 131.5t-49.5 143l-209 -467q-183 0 -234 18q-153 453 -235 666q-23 60 -51.5 87.5t-71.5 30.5q-25 77 -25 160z" />
<glyph unicode="x" horiz-adv-x="1243" d="M51 -4q0 94 25 158q46 3 83 39.5t128 173.5l78 116q-77 130 -158 234q-24 33 -52.5 47.5t-76.5 19.5q-23 74 -23 158q84 -4 322 -4q252 0 342 4q0 -102 -17 -158q-22 -2 -32.5 -8t-11 -20.5t11 -38t35.5 -60.5l45 -69l49 74q30 46 40 70t3.5 35.5t-31.5 16.5 q-23 61 -23 158q72 -4 209 -4q118 0 181 4q0 -90 -23 -158q-46 -4 -70.5 -24.5t-70.5 -89.5l-129 -193q31 -44 88 -135q68 -110 104 -145t92 -39q23 -65 23 -158q-28 2 -56 2t-75.5 -1t-89.5 -1q-373 0 -447 -4q0 96 19 158q24 5 32 18.5t-2 45.5t-43 87l-28 47l-19 -28 q-31 -48 -48 -78.5t-22 -50t0.5 -28.5t20.5 -13q17 -50 17 -158q-55 4 -209 4q-148 0 -191 -4z" />
<glyph unicode="y" horiz-adv-x="1185" d="M20 944q117 -6 314 -6q224 0 350 6q0 -101 -25 -160q-75 -12 -83 -40q-2 -5 -2 -11q0 -32 38 -104q63 -123 117 -269l98 250q30 77 30 114q0 10 -2 17q-10 34 -69 43q-22 58 -22 160q94 -6 207 -6t194 8q0 -97 -26 -162q-48 -12 -75.5 -41t-59.5 -102l-302 -717 q-58 -138 -107.5 -225t-98 -132.5t-92 -61t-101.5 -15.5q-67 0 -134 32t-99 79q-4 19 -4 45t4 59q7 67 26 117q102 -39 238 -39q73 0 111 18t71 70l10 18q-164 390 -348 764q-35 72 -64.5 97.5t-72.5 33.5q-21 62 -21 160z" />
<glyph unicode="z" horiz-adv-x="1060" d="M82 147q259 356 428 637h-35q-84 0 -118 -39t-56 -159q-24 -1 -47 -1q-112 0 -172 33q24 125 24 326q126 -6 437 -6q266 0 401 6q33 -51 33 -129q-161 -294 -416 -661h80q91 0 122 49.5t40 187.5q19 1 38 1q87 0 163 -23q0 -225 16 -324q-22 -49 -96 -49q-43 0 -197.5 2 t-214.5 2q-239 0 -387 -4q-43 64 -43 151z" />
<glyph unicode="{" horiz-adv-x="866" d="M72 436q0 102 10 127q110 36 154 102t47 164q1 47 -8.5 151t-8.5 157q1 58 11 103t38 93.5t75 85t127 69.5t190 56q43 -36 43 -141q-97 -32 -135.5 -94.5t-36.5 -153.5q1 -59 24 -189t23 -192q0 -111 -62.5 -179.5t-222.5 -90.5q82 -12 139.5 -38t88.5 -64.5t44.5 -81.5 t14.5 -97q1 -65 -19.5 -197.5t-21.5 -189.5q-2 -96 37 -159.5t139 -92.5q28 -89 -29 -164q-111 17 -194.5 50.5t-133.5 74.5t-81.5 96t-43 106t-12.5 112q-1 50 5.5 148t5.5 143q-2 52 -11 92.5t-31 79t-63.5 67t-101.5 47.5z" />
<glyph unicode="|" horiz-adv-x="428" d="M123 -487v1953q52 0 106.5 -8.5t75.5 -21.5q0 -98 -3 -428t-3 -529q0 -198 3 -541.5t3 -447.5q-123 0 -182 23z" />
<glyph unicode="}" horiz-adv-x="866" d="M104 -416q100 29 139.5 93t37.5 159q-1 57 -21.5 189.5t-19.5 197.5q1 54 14 97t44 81.5t88.5 64.5t139.5 38q-83 11 -140.5 36t-88 61.5t-43 78t-12.5 94.5q0 62 23 192t24 189q2 91 -36.5 153.5t-135.5 94.5q0 105 43 141q110 -23 190 -56t127 -69.5t75 -85t37.5 -93.5 t10.5 -103q1 -53 -8 -157t-8 -151q3 -98 46.5 -164t153.5 -102q11 -27 11 -127q-60 -19 -101.5 -47.5t-63.5 -67t-31 -79t-11 -92.5q-1 -45 5 -143t5 -148q-1 -61 -12.5 -112t-43 -106t-81.5 -96t-133.5 -74.5t-194.5 -50.5q-57 75 -29 164z" />
<glyph unicode="~" horiz-adv-x="1351" d="M123 463q88 162 178.5 232.5t171.5 70.5q58 0 122 -30t110.5 -65.5t105.5 -65.5t109 -30q51 0 95 33.5t99 116.5q30 -10 65 -37.5t50 -52.5q-58 -109 -121.5 -175.5t-109 -87t-89.5 -20.5q-51 0 -101 20.5t-91 50t-81 58.5t-84.5 49.5t-86.5 20.5q-131 0 -229 -182 q-88 31 -113 94z" />
<glyph unicode="&#xa1;" horiz-adv-x="841" d="M207 739q0 92 57 154.5t156 62.5q98 0 154.5 -55.5t56.5 -150.5q0 -93 -62.5 -148t-160.5 -55q-89 0 -145 57.5t-56 134.5zM231 -360q42 312 82 798q53 0 78 -0.5t65 -6.5t66 -19q42 -450 113 -854q-79 -6 -176 -31t-170 -55q-43 11 -56.5 48.5t-1.5 119.5z" />
<glyph unicode="&#xa2;" horiz-adv-x="1026" d="M61 465q0 87 28 167.5t81.5 147.5t139 113t192.5 59v289q51 0 106 -9t76 -22l-4 -258q157 -14 270 -75q-26 -110 -26 -271q-76 -35 -215 -35q0 116 -32 177t-87 61q-69 0 -107.5 -88.5t-38.5 -226.5q0 -61 15 -116.5t45 -103.5t83 -76t122 -28q125 0 204 47 q48 -51 48 -131q-90 -84 -281 -100l4 -271q-123 0 -182 23v250q-211 22 -326 141t-115 336z" />
<glyph unicode="&#xa3;" horiz-adv-x="1228" d="M72 117q116 74 162.5 163t46.5 207q0 50 -11 107l-180 -4q0 109 33 174h84q-22 45 -34 76t-23 84.5t-11 113.5q0 168 146.5 266.5t419.5 98.5q105 0 222.5 -16.5t178.5 -49.5q-20 -165 -12 -299q-85 -39 -260 -39q-15 135 -50 188.5t-112 53.5q-54 0 -83.5 -36t-29.5 -99 q0 -48 19 -93.5t42.5 -76.5t49.5 -78t37 -94h221q0 -111 -31 -172l-201 4q-48 -130 -202 -291q201 133 313 133q51 0 88 -16t53 -16q29 0 46.5 13.5t39.5 53.5q50 -7 99.5 -35.5t70.5 -58.5q-126 -178 -180 -397q-148 0 -258 41q-176 65 -303 65q-179 0 -299 -104 q-69 47 -92 133z" />
<glyph unicode="&#xa4;" d="M78 879q49 54 127 63l123 -119q98 70 225 70q116 0 205 -59l112 116q44 -9 71.5 -24t51.5 -45l-139 -140q64 -90 64 -204q0 -125 -64 -215l166 -162q-42 -55 -131 -66l-135 131q-94 -61 -201 -61t-195 53l-127 -129q-82 3 -133 57l156 164q-76 98 -76 228q0 103 53 188z M344 547q0 -93 64 -171.5t153 -78.5q86 0 139.5 62t53.5 163q0 93 -63 168.5t-154 75.5q-86 0 -139.5 -60.5t-53.5 -158.5z" />
<glyph unicode="&#xa5;" horiz-adv-x="1269" d="M20 1389q123 -5 345 -5q239 0 344 5q0 -74 -15 -158q-31 -4 -47.5 -17.5t-18.5 -36.5t4.5 -50t22.5 -66q111 -279 144 -369q85 219 155 381q29 67 13.5 110.5t-72.5 47.5q-18 67 -18 158q93 -5 210 -5q109 0 191 5q0 -88 -18 -158q-39 -8 -70.5 -43.5t-73.5 -128.5 l-119 -264h140q0 -85 -23 -158l-188 2l-56 -121h263q0 -70 -25 -158h-242q4 -121 42.5 -159t160.5 -47q21 -67 21 -160q-119 6 -439 6q-55 0 -436 -6q4 107 25 160q60 4 93 10t60 17.5t39 35t18 56t7 87.5h-285q0 105 25 158h258l-58 121l-231 -2q0 105 22 158h136l-152 315 q-54 110 -135 121q-17 64 -17 158z" />
<glyph unicode="&#xa6;" horiz-adv-x="423" d="M123 375q108 0 178 -33q0 -39 -2 -197t-2 -223q0 -48 2 -206t2 -226q-46 0 -100 8.5t-78 24.5v852zM123 655v813q108 0 178 -32q0 -36 -2 -168.5t-2 -208.5q0 -65 2 -233.5t2 -202.5q-110 0 -178 32z" />
<glyph unicode="&#xa7;" horiz-adv-x="1247" d="M61 451q0 246 267 346q-76 72 -109 152.5t-33 187.5q0 143 117 234t305 91q231 0 336 -51q-14 -137 0 -274q-77 -25 -166 -25q-17 98 -66 145.5t-108 47.5q-66 0 -101.5 -23.5t-35.5 -67.5q0 -37 19 -65.5t92.5 -76t218.5 -116.5q182 -87 262 -193.5t80 -246.5 q0 -246 -267 -346q76 -72 109 -152.5t33 -187.5q0 -143 -116.5 -234.5t-303.5 -91.5q-231 0 -338 52q14 137 0 274q77 25 166 25q17 -98 66 -145.5t108 -47.5q137 0 137 90q0 37 -18.5 65.5t-92 76.5t-216.5 116q-183 87 -264 194t-81 247zM385 575q0 -44 15.5 -72t76 -73 t189.5 -117l55 -32q94 39 94 110q0 33 -7 54t-35.5 51t-84 66.5t-153.5 90.5l-56 33q-94 -39 -94 -111z" />
<glyph unicode="&#xa8;" d="M246 1200q0 78 48.5 131t143.5 53q100 0 149.5 -49.5t49.5 -130.5q0 -71 -55 -119.5t-138 -48.5q-87 0 -142.5 47.5t-55.5 116.5zM764 1221q0 77 54 120t143 43q86 0 142 -47t56 -116q0 -80 -46 -132.5t-142 -52.5q-100 0 -153.5 50.5t-53.5 134.5z" />
<glyph unicode="&#xa9;" horiz-adv-x="1667" d="M123 471q0 196 94 359.5t257.5 257.5t359.5 94q195 0 358 -94t257.5 -257.5t94.5 -359.5q0 -146 -56 -278t-150.5 -227t-226 -150.5t-277.5 -55.5q-149 0 -281 55t-226 149.5t-149 226.5t-55 280zM260 471q0 -160 75.5 -291t207 -205.5t291.5 -74.5q120 0 226 44.5 t182 120t120.5 181.5t44.5 225q0 120 -44.5 226t-120.5 182t-182 120.5t-226 44.5q-159 0 -290.5 -75t-207.5 -207t-76 -291zM416 467q0 210 119 335.5t329 125.5q148 0 283 -74q-14 -86 -14 -246q-56 -30 -142 -30q-18 208 -145 208q-61 0 -88 -66t-27 -208 q0 -72 9.5 -130.5t30 -107t57.5 -75.5t87 -27q97 0 179 76q24 -16 40.5 -47.5t16.5 -67.5q-134 -123 -334 -123q-81 0 -153.5 30t-127.5 86.5t-87.5 144.5t-32.5 196z" />
<glyph unicode="&#xaa;" horiz-adv-x="868" d="M61 924q0 53 21.5 95t55.5 70t88 50t106.5 35.5t124.5 25.5q0 98 -21 131q-22 35 -65 35q-31 0 -48 -38.5t-26 -127.5q-112 0 -170 19q6 88 -10 170q128 81 284 81q117 0 178 -19.5t101 -64.5q33 -37 46 -89t13 -146v-111q0 -75 14.5 -102t39.5 -27q0 -77 -17 -127 q-159 -9 -250 -49q-57 18 -57 78q0 21 8 57q-20 -48 -55 -79q-61 -54 -150 -54q-211 0 -211 187zM332 971q0 -70 37 -70q34 0 61 45.5t27 126.5v29q-71 -14 -98 -40.5t-27 -90.5z" />
<glyph unicode="&#xab;" horiz-adv-x="1032" d="M123 436q0 94 35 168q134 109 270 248q97 0 162 -49q-133 -153 -193 -254q79 -183 178 -318q-49 -71 -141 -118q-22 24 -66 73t-65.5 72.5t-55 58.5t-63 63t-61.5 56zM569 420q0 91 27 184q126 105 231 230q114 -13 170 -60q-113 -178 -159 -262q84 -153 159 -244 q-12 -30 -58.5 -72t-100.5 -69q-112 142 -269 293z" />
<glyph unicode="&#xac;" horiz-adv-x="1136" d="M51 549q0 94 25 180h977v-473q-44 -23 -77 -32t-85 -9v342q-441 0 -840 -8z" />
<glyph unicode="&#xad;" horiz-adv-x="858" d="M123 453q0 120 35 215h577q0 -120 -26 -199q-377 0 -586 -16z" />
<glyph unicode="&#xae;" horiz-adv-x="1169" d="M123 940q0 194 134.5 328.5t326.5 134.5q197 0 330 -133.5t133 -329.5q0 -197 -132.5 -329t-330.5 -132q-193 0 -327 133t-134 328zM242 940q0 -145 98.5 -243.5t243.5 -98.5q148 0 246 98t98 244q0 147 -97.5 245.5t-246.5 98.5q-145 0 -243.5 -99t-98.5 -245zM430 735 v420h170q166 0 166 -137q0 -88 -68 -129l90 -150l-133 -12l-65 127l-45 2v-121h-115zM545 950q90 -27 90 56q0 85 -90 57v-113z" />
<glyph unicode="&#xaf;" d="M158 1153q0 89 18 139h768q0 -65 -18 -118q-397 0 -768 -21z" />
<glyph unicode="&#xb0;" horiz-adv-x="892" d="M123 1143q0 124 89.5 206.5t229.5 82.5q154 0 241 -80t87 -207t-90.5 -211t-237.5 -84q-149 0 -234 81t-85 212zM348 1182q0 -92 35 -150.5t84 -58.5q34 0 56 38t22 111q0 89 -30 140t-83 51q-36 0 -60 -39.5t-24 -91.5z" />
<glyph unicode="&#xb1;" d="M117 100q0 120 18 166h889q0 -112 -20 -162q-215 2 -414 2q-209 0 -473 -6zM172 606q0 42 6 96t15 76h282q0 162 -4 271q57 20 184 20v-291h306q0 -116 -21 -168q-141 2 -285 0v-256q-22 -8 -81.5 -14t-104.5 -6q1 68 3 148.5t3 127.5q-49 0 -303 -4z" />
<glyph unicode="&#xb2;" horiz-adv-x="792" d="M72 840q26 28 149 141q101 93 139.5 145.5t38.5 110.5q0 44 -20.5 71t-52.5 27q-18 0 -28 -10t-21 -48.5t-23 -119.5q-100 0 -162 21q14 127 -2 245q123 45 303 45q81 0 147.5 -16.5t114 -60t47.5 -109.5q0 -128 -116 -203q-106 -67 -170 -121h61q70 0 88.5 14.5 t20.5 63.5q98 0 149 -16q0 -177 13 -246q-18 -41 -82 -41q-16 0 -113.5 2t-153.5 2q-139 0 -299 -4q-28 43 -28 107z" />
<glyph unicode="&#xb3;" horiz-adv-x="833" d="M68 557q11 76 57 129q64 -31 176 -31q77 0 124.5 37.5t47.5 116.5q0 54 -30 91.5t-78 37.5q-25 0 -46 -6q-19 14 -38 46.5t-25 61.5q104 123 150 199h-82q-41 0 -65.5 -18t-43.5 -62q-33 0 -68 7t-49 16q27 119 27 284q47 -2 293 -2q204 0 241 2q25 -45 25 -98 q-97 -117 -211 -295q126 0 199 -62t73 -192q0 -135 -116.5 -226t-337.5 -91q-134 0 -223 55z" />
<glyph unicode="&#xb4;" d="M461 1126q91 181 125 320q79 27 209 27q75 0 131 -9q-175 -209 -267 -379q-52 0 -108.5 12.5t-89.5 28.5z" />
<glyph unicode="&#xb5;" horiz-adv-x="1366" d="M96 -358q26 41 33.5 95.5t7.5 215.5v950q91 1 179 16t141 37q69 -31 69 -131v-442q0 -106 22 -146t62 -40q64 0 109 79t45 228v399q91 1 178.5 16t140.5 37q70 -31 70 -131v-358q0 -107 6 -162.5t17.5 -73.5t33.5 -18q28 0 45 20q46 -58 64 -129q-68 -56 -152.5 -89 t-165.5 -33q-168 0 -190 159q-32 -72 -92 -113.5t-141 -41.5q-82 0 -127 34v-102q0 -200 32 -309q-159 -42 -290 -121q-38 23 -66 65.5t-31 88.5z" />
<glyph unicode="&#xb6;" horiz-adv-x="1290" d="M76 985q0 412 622 412q60 0 162.5 -5.5t143.5 -5.5q160 0 231 9q0 -97 -16 -162q-88 -4 -113 -48t-25 -179v-1514q-104 0 -163 35v1700q-30 7 -87 14l3 -1749q-106 0 -164 33v1065q-18 -2 -60 -2q-277 0 -405.5 89t-128.5 308zM477 1006q0 -122 57.5 -189t135.5 -74v496 q-103 -12 -148 -67t-45 -166z" />
<glyph unicode="&#xb7;" horiz-adv-x="669" d="M123 573q0 93 62.5 148t160.5 55q89 0 145 -57.5t56 -134.5q0 -92 -57 -154.5t-156 -62.5q-98 0 -154.5 55.5t-56.5 150.5z" />
<glyph unicode="&#xb8;" d="M424 -391q68 0 114 24t46 66q0 33 -34 54.5t-85 21.5q-37 43 -37 96l133 162h152l-92 -121q86 -13 134 -68t48 -127q0 -103 -94 -158t-267 -55q-18 37 -18 105z" />
<glyph unicode="&#xb9;" horiz-adv-x="727" d="M109 731q0 92 14 152q62 6 81 34t19 107v129q0 81 -21 115.5t-81 40.5q-12 59 -12 153q67 -6 264 -6q175 0 254 6q0 -87 -13 -153q-60 -6 -81 -40.5t-21 -115.5v-129q0 -79 19 -107t81 -34q15 -64 15 -152q-94 6 -254 6q-165 0 -264 -6z" />
<glyph unicode="&#xba;" horiz-adv-x="927" d="M61 1083q0 190 113 287.5t291 97.5q194 0 293.5 -97t99.5 -259q0 -183 -107 -282t-300 -99q-194 0 -292 92.5t-98 259.5zM356 1145q0 -125 31 -208t92 -83q37 0 59.5 58.5t22.5 144.5q0 143 -35.5 219t-83.5 76q-41 0 -63.5 -59t-22.5 -148z" />
<glyph unicode="&#xbb;" horiz-adv-x="1036" d="M35 768q25 20 74.5 39.5t99.5 26.5q67 -76 107.5 -117t117.5 -111q29 -68 29 -182q-133 -142 -264 -297q-47 23 -89.5 60t-62.5 73q89 116 141 225q-55 124 -153 283zM453 795q27 21 72 35t89 14q126 -124 265 -240q34 -64 34 -164q-191 -184 -321 -331q-90 46 -129 122 q94 118 172 248q-94 182 -182 316z" />
<glyph unicode="&#xbc;" horiz-adv-x="1966" d="M68 1262q0 88 16 133q183 21 358 98q35 -10 47.5 -33t12.5 -76v-499q0 -52 3.5 -79t17 -45t33.5 -24t60 -10q13 -34 13 -158q-80 6 -279 6q-182 0 -270 -6q0 87 14 158q56 5 78 16t30.5 38t8.5 93v248q0 83 -24.5 108t-118.5 32zM389 37l1053 1431q45 0 94.5 -17 t77.5 -42l-1049 -1427q-50 0 -104 15.5t-72 39.5zM1073 373q255 289 459 553q44 6 114 0.5t107 -17.5v-438h78q36 0 55 -10.5t33 -36.5q-21 -41 -37 -176h-127q6 -58 28.5 -76t76.5 -20q12 -55 12 -156q-78 4 -285 4q-192 0 -266 -4q0 111 14 156q64 3 93 21t36 71 q-196 -3 -340 -11q-17 17 -34 64t-17 76zM1329 471h139v182z" />
<glyph unicode="&#xbd;" horiz-adv-x="2088" d="M68 1262q0 88 16 133q183 21 358 98q35 -10 47.5 -33t12.5 -76v-499q0 -52 3.5 -79t17 -45t33.5 -24t60 -10q13 -34 13 -158q-80 6 -279 6q-182 0 -270 -6q0 87 14 158q56 5 78 16t30.5 38t8.5 93v248q0 83 -24.5 108t-118.5 32zM389 37l1053 1431q45 0 94.5 -17 t77.5 -42l-1049 -1427q-50 0 -104 15.5t-72 39.5zM1309 168q39 48 112 121l78 78q90 90 127 158.5t37 136.5q0 131 -64 131q-87 0 -102 -211q-66 0 -101 5t-77 23q23 110 20 244q112 66 332 66q320 0 320 -215q0 -154 -215 -304q-91 -64 -150 -118h133q65 0 85 14t24 63 q108 0 151 -14q-4 -222 15 -301q-26 -47 -103 -47l-252 2q-61 0 -162.5 -1t-160.5 -1q-47 65 -47 170z" />
<glyph unicode="&#xbe;" horiz-adv-x="1921" d="M76 629q-3 65 22 104q79 -41 168 -41q72 0 110 34.5t38 94.5q0 46 -30.5 75.5t-72.5 29.5q-39 0 -55 -8q-44 44 -51 114q95 95 164 199h-66q-37 0 -62.5 -18t-43.5 -62q-77 0 -117 23q11 50 19.5 153.5t6.5 159.5q102 -4 291 -4q75 0 155 2t89 2q25 -29 25 -98 q-102 -121 -211 -279q47 -5 81.5 -13t69 -24t56.5 -40t35.5 -62.5t13.5 -89.5q0 -148 -110 -235t-290 -87q-86 0 -146.5 22t-88.5 48zM344 37l1053 1431q45 0 94.5 -17t77.5 -42l-1049 -1427q-50 0 -104 15.5t-72 39.5zM1028 373q255 289 459 553q44 6 114 0.5t107 -17.5 v-438h78q36 0 55 -10.5t33 -36.5q-21 -41 -37 -176h-127q6 -58 28.5 -76t76.5 -20q12 -55 12 -156q-78 4 -285 4q-192 0 -266 -4q0 111 14 156q64 3 93 21t36 71q-196 -3 -340 -11q-17 17 -34 64t-17 76zM1284 471h139v182z" />
<glyph unicode="&#xbf;" horiz-adv-x="1099" d="M72 -281q0 60 18.5 110t48 85t65 66.5t71 61.5t65 61.5t48 74.5t18.5 94q0 75 -31 170q32 18 84.5 28.5t99.5 10.5q52 -31 87.5 -106t35.5 -156q0 -70 -23 -125t-55 -90t-64.5 -68t-55.5 -76.5t-23 -97.5q0 -69 26 -102t66 -33q29 0 49 21.5t38 83.5t30 170 q125 0 209 -47q-14 -172 0 -293q-196 -92 -424 -92q-192 0 -287.5 65t-95.5 184zM266 737q0 92 57 154.5t156 62.5q98 0 154.5 -55.5t56.5 -150.5q0 -93 -62.5 -148t-160.5 -55q-89 0 -145 57.5t-56 134.5z" />
<glyph unicode="&#xc0;" horiz-adv-x="1468" d="M20 -6q0 93 21 160q50 9 81.5 48.5t82.5 157.5l434 1024q57 13 156 13l454 -998q48 -106 78 -157t51.5 -68t53.5 -20q16 -56 16 -160q-82 6 -322 6q-282 0 -360 -6q0 94 16 160q67 15 81 50.5t-17 104.5l-15 31q-257 0 -464 -21l-5 -8q-11 -32 -10.5 -64t23.5 -59t65 -34 q17 -73 17 -160q-71 6 -240 6q-135 0 -197 -6zM389 1849q158 66 336 66q55 -177 141 -340q-75 -37 -209 -37q-47 66 -77.5 105.5t-81.5 96.5t-109 109zM426 473h348l-78 174q-67 149 -102 283q-48 -155 -100 -283z" />
<glyph unicode="&#xc1;" horiz-adv-x="1468" d="M20 -6q0 93 21 160q50 9 81.5 48.5t82.5 157.5l434 1024q57 13 156 13l454 -998q48 -106 78 -157t51.5 -68t53.5 -20q16 -56 16 -160q-82 6 -322 6q-282 0 -360 -6q0 94 16 160q67 15 81 50.5t-17 104.5l-15 31q-257 0 -464 -21l-5 -8q-11 -32 -10.5 -64t23.5 -59t65 -34 q17 -73 17 -160q-71 6 -240 6q-135 0 -197 -6zM426 473h348l-78 174q-67 149 -102 283q-48 -155 -100 -283zM602 1573q92 182 125 319q80 27 209 27q82 0 131 -8q-172 -206 -266 -379q-53 0 -109.5 12.5t-89.5 28.5z" />
<glyph unicode="&#xc2;" horiz-adv-x="1468" d="M20 -6q0 93 21 160q50 9 81.5 48.5t82.5 157.5l434 1024q57 13 156 13l454 -998q48 -106 78 -157t51.5 -68t53.5 -20q16 -56 16 -160q-82 6 -322 6q-282 0 -360 -6q0 94 16 160q67 15 81 50.5t-17 104.5l-15 31q-257 0 -464 -21l-5 -8q-11 -32 -10.5 -64t23.5 -59t65 -34 q17 -73 17 -160q-71 6 -240 6q-135 0 -197 -6zM305 1618q215 143 344 278q84 31 178 31q131 -156 328 -321q-75 -85 -184 -105q-134 98 -275 170q-56 -30 -135 -80.5t-129 -89.5q-46 10 -80.5 44.5t-46.5 72.5zM426 473h348l-78 174q-67 149 -102 283q-48 -155 -100 -283z " />
<glyph unicode="&#xc3;" horiz-adv-x="1468" d="M20 -6q0 93 21 160q50 9 81.5 48.5t82.5 157.5l434 1024q57 13 156 13l454 -998q48 -106 78 -157t51.5 -68t53.5 -20q16 -56 16 -160q-82 6 -322 6q-282 0 -360 -6q0 94 16 160q67 15 81 50.5t-17 104.5l-15 31q-257 0 -464 -21l-5 -8q-11 -32 -10.5 -64t23.5 -59t65 -34 q17 -73 17 -160q-71 6 -240 6q-135 0 -197 -6zM266 1599q157 254 332 254q56 0 112 -21t105 -42t90 -21q104 0 172 68q70 -44 90 -106q-69 -137 -139 -202t-162 -65q-60 0 -115.5 22.5t-105.5 45t-98 22.5q-111 0 -207 -84q-63 54 -74 129zM426 473h348l-78 174 q-67 149 -102 283q-48 -155 -100 -283z" />
<glyph unicode="&#xc4;" horiz-adv-x="1468" d="M20 -6q0 93 21 160q50 9 81.5 48.5t82.5 157.5l434 1024q57 13 156 13l454 -998q48 -106 78 -157t51.5 -68t53.5 -20q16 -56 16 -160q-82 6 -322 6q-282 0 -360 -6q0 94 16 160q67 15 81 50.5t-17 104.5l-15 31q-257 0 -464 -21l-5 -8q-11 -32 -10.5 -64t23.5 -59t65 -34 q17 -73 17 -160q-71 6 -240 6q-135 0 -197 -6zM262 1647q0 78 49 131t144 53q100 0 149 -49.5t49 -130.5q0 -71 -54.5 -119.5t-137.5 -48.5q-88 0 -143.5 47.5t-55.5 116.5zM426 473h348l-78 174q-67 149 -102 283q-48 -155 -100 -283zM780 1667q0 77 54 120.5t143 43.5 q86 0 142.5 -47.5t56.5 -116.5q0 -79 -46.5 -131.5t-142.5 -52.5q-100 0 -153.5 50t-53.5 134z" />
<glyph unicode="&#xc5;" horiz-adv-x="1468" d="M20 -6q0 93 21 160q50 9 81.5 48.5t82.5 157.5l434 1024q57 13 156 13l454 -998q48 -106 78 -157t51.5 -68t53.5 -20q16 -56 16 -160q-82 6 -322 6q-282 0 -360 -6q0 94 16 160q67 15 81 50.5t-17 104.5l-15 31q-257 0 -464 -21l-5 -8q-11 -32 -10.5 -64t23.5 -59t65 -34 q17 -73 17 -160q-71 6 -240 6q-135 0 -197 -6zM426 473h348l-78 174q-67 149 -102 283q-48 -155 -100 -283zM434 1714q0 103 81.5 164t209.5 61q121 0 195.5 -52t74.5 -156q0 -102 -80.5 -165t-212.5 -63q-117 0 -192.5 57t-75.5 154zM647 1726q0 -44 20 -72t54 -28 q27 0 45 24t18 64q0 43 -19.5 78t-55.5 35q-28 0 -45 -27t-17 -74z" />
<glyph unicode="&#xc6;" horiz-adv-x="2183" d="M100 -6q0 108 21 160q72 9 111 39.5t90 117.5l436 752q46 83 31.5 121.5t-91.5 46.5q-8 20 -17 73t-9 85q265 -5 426 -5h278q374 0 600 7q0 -176 43 -365q-21 -17 -88.5 -27t-118.5 -10q-11 60 -27.5 100.5t-47 74.5t-82 50.5t-125.5 16.5h-100v-510h22q90 0 118 27 t29 129q73 26 179 26q-6 -99 -6 -244q0 -156 6 -245q-135 0 -176 18q-6 99 -33 126.5t-117 27.5h-22v-193q0 -144 33 -191.5t126 -47.5h35q101 0 154.5 55.5t115.5 222.5q158 -26 205 -70q-50 -151 -63 -366q-200 4 -580 4q-471 0 -588 -6q0 96 17 160q58 4 85 22.5t38.5 64 t11.5 142.5v195q-252 -9 -375 -27q-29 -53 -113 -203q-90 -169 60 -194q20 -49 20 -160q-94 6 -241 6q-209 0 -271 -6zM743 721h277v385q0 50 6 111q-24 -50 -53 -99z" />
<glyph unicode="&#xc7;" horiz-adv-x="1298" d="M72 698q0 169 58 305.5t156 222.5t224 131.5t266 45.5q229 0 451 -107q-23 -135 -23 -317q-25 -14 -86.5 -21.5t-116.5 -7.5q-3 295 -217 295q-64 0 -115 -27t-83.5 -72.5t-54 -109.5t-30.5 -134t-9 -150q0 -126 23.5 -229t71 -182.5t126.5 -123t184 -43.5q148 0 303 86 q43 -37 57 -113q-151 -132 -378 -159l-58 -76q86 -13 134.5 -68t48.5 -127q0 -103 -94 -158t-267 -55q-18 37 -18 105q68 0 113.5 24t45.5 66q0 34 -33.5 55t-84.5 21q-37 43 -37 96l92 113q-295 19 -472 214t-177 500z" />
<glyph unicode="&#xc8;" horiz-adv-x="1323" d="M61 -6q0 94 17 160q58 4 85 22.5t38.5 64t11.5 142.5v623q0 58 -3.5 93t-11 60.5t-25 39t-39 20.5t-58.5 12q-15 61 -15 160q222 -7 555 -7q352 0 553 7q2 -89 13 -193.5t30 -171.5q-98 -37 -206 -37q-11 60 -27.5 100.5t-47.5 74.5t-82.5 50.5t-125.5 16.5h-100v-465h2 q97 0 130.5 31.5t35.5 113.5q65 25 180 25q-8 -132 -8 -240q0 -125 8 -243q-117 0 -176 20q-7 83 -42.5 111t-127.5 28h-2v-219q0 -140 33 -189.5t126 -49.5h35q104 0 165 64.5t101 213.5q67 -6 124.5 -25.5t84.5 -44.5q-46 -139 -63 -366q-242 4 -535 4q-351 0 -633 -6z M315 1849q158 66 336 66q54 -173 142 -340q-75 -37 -209 -37q-70 98 -128 167t-141 144z" />
<glyph unicode="&#xc9;" horiz-adv-x="1323" d="M61 -6q0 94 17 160q58 4 85 22.5t38.5 64t11.5 142.5v623q0 58 -3.5 93t-11 60.5t-25 39t-39 20.5t-58.5 12q-15 61 -15 160q222 -7 555 -7q352 0 553 7q2 -89 13 -193.5t30 -171.5q-98 -37 -206 -37q-11 60 -27.5 100.5t-47.5 74.5t-82.5 50.5t-125.5 16.5h-100v-465h2 q97 0 130.5 31.5t35.5 113.5q65 25 180 25q-8 -132 -8 -240q0 -125 8 -243q-117 0 -176 20q-7 83 -42.5 111t-127.5 28h-2v-219q0 -140 33 -189.5t126 -49.5h35q104 0 165 64.5t101 213.5q67 -6 124.5 -25.5t84.5 -44.5q-46 -139 -63 -366q-242 4 -535 4q-351 0 -633 -6z M528 1573q92 182 125 319q79 27 209 27q82 0 131 -8q-172 -206 -266 -379q-53 0 -109.5 12.5t-89.5 28.5z" />
<glyph unicode="&#xca;" horiz-adv-x="1323" d="M61 -6q0 94 17 160q58 4 85 22.5t38.5 64t11.5 142.5v623q0 58 -3.5 93t-11 60.5t-25 39t-39 20.5t-58.5 12q-15 61 -15 160q222 -7 555 -7q352 0 553 7q2 -89 13 -193.5t30 -171.5q-98 -37 -206 -37q-11 60 -27.5 100.5t-47.5 74.5t-82.5 50.5t-125.5 16.5h-100v-465h2 q97 0 130.5 31.5t35.5 113.5q65 25 180 25q-8 -132 -8 -240q0 -125 8 -243q-117 0 -176 20q-7 83 -42.5 111t-127.5 28h-2v-219q0 -140 33 -189.5t126 -49.5h35q104 0 165 64.5t101 213.5q67 -6 124.5 -25.5t84.5 -44.5q-46 -139 -63 -366q-242 4 -535 4q-351 0 -633 -6z M231 1618q215 143 344 278q84 31 179 31q134 -159 327 -321q-75 -85 -184 -105q-137 100 -274 170q-57 -30 -136 -80.5t-129 -89.5q-46 10 -80.5 44.5t-46.5 72.5z" />
<glyph unicode="&#xcb;" horiz-adv-x="1323" d="M61 -6q0 94 17 160q58 4 85 22.5t38.5 64t11.5 142.5v623q0 58 -3.5 93t-11 60.5t-25 39t-39 20.5t-58.5 12q-15 61 -15 160q222 -7 555 -7q352 0 553 7q2 -89 13 -193.5t30 -171.5q-98 -37 -206 -37q-11 60 -27.5 100.5t-47.5 74.5t-82.5 50.5t-125.5 16.5h-100v-465h2 q97 0 130.5 31.5t35.5 113.5q65 25 180 25q-8 -132 -8 -240q0 -125 8 -243q-117 0 -176 20q-7 83 -42.5 111t-127.5 28h-2v-219q0 -140 33 -189.5t126 -49.5h35q104 0 165 64.5t101 213.5q67 -6 124.5 -25.5t84.5 -44.5q-46 -139 -63 -366q-242 4 -535 4q-351 0 -633 -6z M188 1647q0 78 49 131t144 53q100 0 149.5 -49.5t49.5 -130.5q0 -71 -55 -119.5t-138 -48.5q-88 0 -143.5 47.5t-55.5 116.5zM707 1667q0 77 53.5 120.5t142.5 43.5q86 0 142.5 -47.5t56.5 -116.5q0 -79 -46.5 -131.5t-142.5 -52.5q-100 0 -153 50t-53 134z" />
<glyph unicode="&#xcc;" horiz-adv-x="835" d="M61 -6q0 78 21 160q84 6 107.5 47t23.5 182v623q0 96 -10 138.5t-36 60.5t-87 26q-19 78 -19 160q119 -7 367 -7q202 0 346 7q0 -107 -18 -160q-60 -6 -86 -24t-36.5 -62t-10.5 -139v-623q0 -97 11.5 -142.5t38.5 -64t85 -22.5q16 -59 16 -160q-92 6 -325 6 q-244 0 -388 -6zM90 1849q158 66 336 66q55 -177 141 -340q-75 -37 -209 -37q-47 66 -77.5 105.5t-81.5 96.5t-109 109z" />
<glyph unicode="&#xcd;" horiz-adv-x="835" d="M61 -6q0 78 21 160q84 6 107.5 47t23.5 182v623q0 96 -10 138.5t-36 60.5t-87 26q-19 78 -19 160q119 -7 367 -7q202 0 346 7q0 -107 -18 -160q-60 -6 -86 -24t-36.5 -62t-10.5 -139v-623q0 -97 11.5 -142.5t38.5 -64t85 -22.5q16 -59 16 -160q-92 6 -325 6 q-244 0 -388 -6zM303 1573q92 182 125 319q80 27 209 27q82 0 131 -8q-172 -206 -266 -379q-53 0 -109.5 12.5t-89.5 28.5z" />
<glyph unicode="&#xce;" horiz-adv-x="835" d="M6 1618q215 143 344 278q84 31 178 31q131 -156 328 -321q-75 -85 -184 -105q-134 98 -275 170q-56 -30 -135 -80.5t-129 -89.5q-46 10 -80.5 44.5t-46.5 72.5zM61 -6q0 78 21 160q84 6 107.5 47t23.5 182v623q0 96 -10 138.5t-36 60.5t-87 26q-19 78 -19 160 q119 -7 367 -7q202 0 346 7q0 -107 -18 -160q-60 -6 -86 -24t-36.5 -62t-10.5 -139v-623q0 -97 11.5 -142.5t38.5 -64t85 -22.5q16 -59 16 -160q-92 6 -325 6q-244 0 -388 -6z" />
<glyph unicode="&#xcf;" horiz-adv-x="835" d="M-37 1647q0 78 49 131t144 53q100 0 149 -49.5t49 -130.5q0 -71 -54.5 -119.5t-137.5 -48.5q-88 0 -143.5 47.5t-55.5 116.5zM61 -6q0 78 21 160q84 6 107.5 47t23.5 182v623q0 96 -10 138.5t-36 60.5t-87 26q-19 78 -19 160q119 -7 367 -7q202 0 346 7q0 -107 -18 -160 q-60 -6 -86 -24t-36.5 -62t-10.5 -139v-623q0 -97 11.5 -142.5t38.5 -64t85 -22.5q16 -59 16 -160q-92 6 -325 6q-244 0 -388 -6zM481 1667q0 77 54 120.5t143 43.5q86 0 142.5 -47.5t56.5 -116.5q0 -79 -46.5 -131.5t-142.5 -52.5q-100 0 -153.5 50t-53.5 134z" />
<glyph unicode="&#xd0;" horiz-adv-x="1538" d="M39 504q0 110 27 186h163v316q0 58 -3.5 93t-11 60.5t-25 39t-39 20.5t-58.5 12q-14 57 -14 160q46 -2 428 -7q142 5 215 5q91 0 167 -7.5t153.5 -26.5t137.5 -51t114 -83t89 -119t55.5 -163t20.5 -212q0 -137 -31.5 -249t-80.5 -186t-118.5 -129.5t-136.5 -85.5 t-144 -48.5t-130.5 -23.5t-105.5 -5q-351 0 -633 -6q0 98 16 160q58 4 85 22.5t38.5 64t11.5 142.5v125q-25 0 -88 -2t-102 -2zM639 393q0 -140 33.5 -189.5t126.5 -49.5q16 0 33 3.5t42 16.5t47 34.5t45.5 62.5t40 95.5t27 138t10.5 185.5q0 545 -323 545q-45 0 -82 -16 v-529h276q0 -108 -26 -182q-109 2 -250 2v-117z" />
<glyph unicode="&#xd1;" horiz-adv-x="1456" d="M31 0q0 103 16 154q67 7 100.5 31t49.5 84t16 177v689l-29 39q-17 28 -44.5 39.5t-92.5 17.5q-16 60 -16 160q93 -7 272 -7q168 0 232 7l563 -777v324q0 121 -13.5 178t-48.5 82t-112 33q-15 59 -15 160q100 -7 269 -7q131 0 217 7q0 -103 -15 -160q-56 -7 -81.5 -30.5 t-36.5 -81.5t-11 -181v-938q-62 -18 -186 -18l-698 946v-482q0 -120 13.5 -178t46 -82.5t101.5 -31.5q15 -56 15 -160q-86 6 -248 6q-21 0 -83.5 1t-110.5 1t-70 -2zM287 1599q157 254 331 254q56 0 112 -21t105.5 -42t90.5 -21q104 0 172 68q70 -44 90 -106 q-69 -137 -139 -202t-162 -65q-60 0 -115.5 22.5t-106 45t-98.5 22.5q-111 0 -207 -84q-62 53 -73 129z" />
<glyph unicode="&#xd2;" horiz-adv-x="1558" d="M72 698q0 214 90 375t249.5 245.5t366.5 84.5q212 0 373 -83t248.5 -237t87.5 -358q0 -219 -86.5 -387t-248 -262t-374.5 -94q-218 0 -378.5 90t-244 251t-83.5 375zM453 1849q158 66 335 66q54 -173 142 -340q-75 -37 -209 -37q-47 66 -77.5 105.5t-81.5 96.5t-109 109z M492 748q0 -126 18.5 -233.5t55 -192.5t97.5 -133t140 -48q126 0 195 145t69 396q0 158 -37 285.5t-109.5 204.5t-168.5 77q-125 0 -192.5 -130t-67.5 -371z" />
<glyph unicode="&#xd3;" horiz-adv-x="1558" d="M72 698q0 214 90 375t249.5 245.5t366.5 84.5q212 0 373 -83t248.5 -237t87.5 -358q0 -219 -86.5 -387t-248 -262t-374.5 -94q-218 0 -378.5 90t-244 251t-83.5 375zM492 748q0 -126 18.5 -233.5t55 -192.5t97.5 -133t140 -48q126 0 195 145t69 396q0 158 -37 285.5 t-109.5 204.5t-168.5 77q-125 0 -192.5 -130t-67.5 -371zM666 1573q92 182 125 319q79 27 208 27q82 0 131 -8q-172 -206 -266 -379q-52 0 -108.5 12.5t-89.5 28.5z" />
<glyph unicode="&#xd4;" horiz-adv-x="1558" d="M72 698q0 214 90 375t249.5 245.5t366.5 84.5q212 0 373 -83t248.5 -237t87.5 -358q0 -219 -86.5 -387t-248 -262t-374.5 -94q-218 0 -378.5 90t-244 251t-83.5 375zM369 1618q215 143 344 278q84 31 178 31q131 -156 328 -321q-75 -85 -185 -105q-137 100 -274 170 q-56 -30 -135 -80.5t-129 -89.5q-46 10 -80.5 44.5t-46.5 72.5zM492 748q0 -126 18.5 -233.5t55 -192.5t97.5 -133t140 -48q126 0 195 145t69 396q0 158 -37 285.5t-109.5 204.5t-168.5 77q-125 0 -192.5 -130t-67.5 -371z" />
<glyph unicode="&#xd5;" horiz-adv-x="1558" d="M72 698q0 214 90 375t249.5 245.5t366.5 84.5q212 0 373 -83t248.5 -237t87.5 -358q0 -219 -86.5 -387t-248 -262t-374.5 -94q-218 0 -378.5 90t-244 251t-83.5 375zM330 1599q157 254 332 254q56 0 112 -21t105 -42t90 -21q104 0 172 68q70 -44 90 -106 q-69 -137 -139 -202t-162 -65q-60 0 -115.5 22.5t-106 45t-98.5 22.5q-111 0 -207 -84q-62 53 -73 129zM492 748q0 -126 18.5 -233.5t55 -192.5t97.5 -133t140 -48q126 0 195 145t69 396q0 158 -37 285.5t-109.5 204.5t-168.5 77q-125 0 -192.5 -130t-67.5 -371z" />
<glyph unicode="&#xd6;" horiz-adv-x="1558" d="M72 698q0 214 90 375t249.5 245.5t366.5 84.5q212 0 373 -83t248.5 -237t87.5 -358q0 -219 -86.5 -387t-248 -262t-374.5 -94q-218 0 -378.5 90t-244 251t-83.5 375zM326 1647q0 78 48.5 131t143.5 53q100 0 149.5 -49.5t49.5 -130.5q0 -71 -55 -119.5t-138 -48.5 q-87 0 -142.5 47.5t-55.5 116.5zM492 748q0 -126 18.5 -233.5t55 -192.5t97.5 -133t140 -48q126 0 195 145t69 396q0 158 -37 285.5t-109.5 204.5t-168.5 77q-125 0 -192.5 -130t-67.5 -371zM844 1667q0 77 53.5 120.5t142.5 43.5q86 0 142.5 -47.5t56.5 -116.5 q0 -79 -46 -131.5t-142 -52.5q-100 0 -153.5 50t-53.5 134z" />
<glyph unicode="&#xd7;" horiz-adv-x="1296" d="M109 43l440 446q-142 140 -436 418q35 33 81.5 54.5t88.5 21.5l383 -375l374 379q54 0 111.5 -16t77.5 -39q-195 -186 -447 -438l443 -435q-26 -32 -75.5 -54.5t-96.5 -22.5q-191 196 -387 393q-204 -207 -373 -393q-53 -2 -107.5 15.5t-76.5 45.5z" />
<glyph unicode="&#xd8;" horiz-adv-x="1572" d="M72 698q0 214 90 375t249.5 245.5t366.5 84.5q227 0 400 -98l104 129q61 0 120.5 -13.5t92.5 -36.5l-166 -204q158 -182 158 -455q0 -219 -86.5 -387t-248 -262t-374.5 -94q-205 0 -356 77l-94 -112q-146 0 -213 45l151 180q-194 194 -194 526zM492 748q0 -155 26 -273 l467 604q-87 170 -233 170q-125 0 -192.5 -130t-67.5 -371zM598 262q78 -121 205 -121q126 0 195 145t69 396q0 86 -12 166z" />
<glyph unicode="&#xd9;" horiz-adv-x="1427" d="M41 1391q96 -7 278 -7q311 0 426 7q0 -104 -12 -160q-36 -6 -57 -14t-37 -22t-23 -41t-10.5 -63.5t-3.5 -95.5v-471q0 -192 56.5 -284.5t172.5 -92.5q50 0 98.5 22.5t78.5 66.5q57 86 57 352v368q0 150 -29 205t-106 70q-12 82 -12 160q96 -7 229 -7q130 0 219 7 q0 -100 -16 -160q-79 -10 -104 -61.5t-25 -194.5v-408q0 -186 -27 -297.5t-96 -179.5q-116 -108 -363 -108q-155 0 -258.5 28.5t-167 91.5t-90 156t-26.5 231v506q0 59 -4 96.5t-12 63.5t-25.5 40.5t-38.5 22t-56 13.5q-16 69 -16 160zM504 1849q158 66 336 66 q55 -177 141 -340q-75 -37 -209 -37q-47 66 -77.5 105.5t-81.5 96.5t-109 109z" />
<glyph unicode="&#xda;" horiz-adv-x="1427" d="M41 1391q96 -7 278 -7q311 0 426 7q0 -104 -12 -160q-36 -6 -57 -14t-37 -22t-23 -41t-10.5 -63.5t-3.5 -95.5v-471q0 -192 56.5 -284.5t172.5 -92.5q50 0 98.5 22.5t78.5 66.5q57 86 57 352v368q0 150 -29 205t-106 70q-12 82 -12 160q96 -7 229 -7q130 0 219 7 q0 -100 -16 -160q-79 -10 -104 -61.5t-25 -194.5v-408q0 -186 -27 -297.5t-96 -179.5q-116 -108 -363 -108q-155 0 -258.5 28.5t-167 91.5t-90 156t-26.5 231v506q0 59 -4 96.5t-12 63.5t-25.5 40.5t-38.5 22t-56 13.5q-16 69 -16 160zM717 1573q92 182 125 319 q80 27 209 27q82 0 131 -8q-175 -209 -267 -379q-52 0 -108.5 12.5t-89.5 28.5z" />
<glyph unicode="&#xdb;" horiz-adv-x="1427" d="M41 1391q96 -7 278 -7q311 0 426 7q0 -104 -12 -160q-36 -6 -57 -14t-37 -22t-23 -41t-10.5 -63.5t-3.5 -95.5v-471q0 -192 56.5 -284.5t172.5 -92.5q50 0 98.5 22.5t78.5 66.5q57 86 57 352v368q0 150 -29 205t-106 70q-12 82 -12 160q96 -7 229 -7q130 0 219 7 q0 -100 -16 -160q-79 -10 -104 -61.5t-25 -194.5v-408q0 -186 -27 -297.5t-96 -179.5q-116 -108 -363 -108q-155 0 -258.5 28.5t-167 91.5t-90 156t-26.5 231v506q0 59 -4 96.5t-12 63.5t-25.5 40.5t-38.5 22t-56 13.5q-16 69 -16 160zM420 1618q215 143 344 278 q84 31 178 31q131 -156 328 -321q-75 -85 -185 -105q-137 100 -274 170q-56 -30 -135 -80.5t-129 -89.5q-46 10 -80.5 44.5t-46.5 72.5z" />
<glyph unicode="&#xdc;" horiz-adv-x="1427" d="M41 1391q96 -7 278 -7q311 0 426 7q0 -104 -12 -160q-36 -6 -57 -14t-37 -22t-23 -41t-10.5 -63.5t-3.5 -95.5v-471q0 -192 56.5 -284.5t172.5 -92.5q50 0 98.5 22.5t78.5 66.5q57 86 57 352v368q0 150 -29 205t-106 70q-12 82 -12 160q96 -7 229 -7q130 0 219 7 q0 -100 -16 -160q-79 -10 -104 -61.5t-25 -194.5v-408q0 -186 -27 -297.5t-96 -179.5q-116 -108 -363 -108q-155 0 -258.5 28.5t-167 91.5t-90 156t-26.5 231v506q0 59 -4 96.5t-12 63.5t-25.5 40.5t-38.5 22t-56 13.5q-16 69 -16 160zM377 1647q0 78 48.5 131t143.5 53 q100 0 149.5 -49.5t49.5 -130.5q0 -71 -55 -119.5t-138 -48.5q-87 0 -142.5 47.5t-55.5 116.5zM895 1667q0 77 54 120.5t143 43.5q86 0 142 -47t56 -117q0 -79 -46 -131.5t-142 -52.5q-100 0 -153.5 50t-53.5 134z" />
<glyph unicode="&#xdd;" horiz-adv-x="1298" d="M20 1389q123 -5 345 -5q239 0 344 5q0 -74 -15 -158q-31 -4 -47.5 -17.5t-18.5 -36.5t4.5 -50t22.5 -66q111 -279 144 -369q85 219 155 381q29 67 13.5 110.5t-72.5 47.5q-18 67 -18 158q93 -5 210 -5q109 0 191 5q0 -88 -18 -158q-39 -8 -70.5 -43.5t-73.5 -128.5 l-250 -551v-102q0 -80 6.5 -124t30 -73t60.5 -39.5t106 -15.5q21 -67 21 -160q-119 6 -439 6q-55 0 -436 -6q4 107 25 160q54 4 85 8.5t58.5 16t39.5 26t21 45t11 65t2 93.5v106l-285 596q-54 110 -135 121q-17 64 -17 158zM664 1573q90 178 124 319q79 27 209 27 q82 0 131 -8q-172 -206 -266 -379q-52 0 -108.5 12.5t-89.5 28.5z" />
<glyph unicode="&#xde;" horiz-adv-x="1415" d="M63 -6q0 78 21 160q84 6 107.5 47t23.5 182v623q0 96 -10 138.5t-36 60.5t-87 26q-19 78 -19 160q119 -7 367 -7q202 0 346 7q0 -107 -18 -160q-67 -8 -93.5 -30.5t-35.5 -86.5q31 0 111 1t137 1q123 0 213.5 -30t142 -84t76 -120.5t24.5 -146.5q0 -193 -132 -311.5 t-353 -118.5q-89 0 -141 17q-14 85 18 147h45q72 0 123 60t51 180q0 108 -56.5 176.5t-160.5 68.5q-65 0 -102 -16v-555q0 -97 11.5 -142.5t38.5 -64t85 -22.5q16 -59 16 -160q-92 6 -325 6q-244 0 -388 -6z" />
<glyph unicode="&#xdf;" horiz-adv-x="1564" d="M55 754q0 104 25 164h133v59q0 246 146 368.5t423 122.5q253 0 380.5 -77t127.5 -191q0 -56 -26 -101t-62.5 -71.5t-73 -48t-62.5 -43.5t-26 -45q0 -28 25.5 -53t66.5 -46t90.5 -44t98.5 -55.5t90 -72t66.5 -100.5t25.5 -135q0 -100 -45 -179t-119.5 -126.5t-165 -72.5 t-188.5 -25q-222 0 -317 53q7 44 10 148t0 155q34 12 93.5 19.5t102.5 7.5q12 -118 42.5 -169t95.5 -51q35 0 61.5 24t26.5 62q0 42 -23.5 77.5t-61.5 62t-83.5 53t-91 56t-83.5 63.5t-61.5 83.5t-23.5 108.5q0 56 20.5 97.5t50.5 63.5t66 45.5t66 44.5t50.5 61.5t20.5 95.5 q0 74 -55 125t-150 51q-53 0 -80 -16.5t-43 -73t-16 -166.5v-1065q-80 2 -225 2q-202 0 -316 -6q0 99 19 160q57 3 84 20.5t38 60t11 130.5v364q-24 10 -72 17.5t-86 7.5z" />
<glyph unicode="&#xe0;" horiz-adv-x="1206" d="M51 231q0 57 23.5 105t58.5 81t91.5 61t104.5 44.5t117 31.5t110 21.5t101 14.5q4 0 5.5 0.5t4.5 1t5 0.5q0 70 -10.5 110.5t-36.5 69.5q-37 43 -105 43q-124 0 -147 -223q-85 0 -131.5 4.5t-91.5 21.5q10 134 -15 265q195 73 440 73q163 0 252.5 -23.5t139.5 -78.5 q44 -46 69 -121t25 -209v-135q0 -112 20.5 -142.5t94.5 -33.5q16 -94 -23 -162q-201 -3 -369 -69q-42 17 -59.5 45t-17.5 71q0 51 14 103q-46 -96 -100 -140q-101 -75 -242 -75q-328 0 -328 245zM231 1403q155 65 336 65q54 -173 142 -340q-73 -36 -209 -36q-70 98 -128 167 t-141 144zM430 295q0 -86 78 -86q63 0 113.5 59t50.5 158v35q-130 -26 -186 -66t-56 -100z" />
<glyph unicode="&#xe1;" horiz-adv-x="1206" d="M51 231q0 57 23.5 105t58.5 81t91.5 61t104.5 44.5t117 31.5t110 21.5t101 14.5q4 0 5.5 0.5t4.5 1t5 0.5q0 70 -10.5 110.5t-36.5 69.5q-37 43 -105 43q-124 0 -147 -223q-85 0 -131.5 4.5t-91.5 21.5q10 134 -15 265q195 73 440 73q163 0 252.5 -23.5t139.5 -78.5 q44 -46 69 -121t25 -209v-135q0 -112 20.5 -142.5t94.5 -33.5q16 -94 -23 -162q-201 -3 -369 -69q-42 17 -59.5 45t-17.5 71q0 51 14 103q-46 -96 -100 -140q-101 -75 -242 -75q-328 0 -328 245zM430 295q0 -86 78 -86q63 0 113.5 59t50.5 158v35q-130 -26 -186 -66 t-56 -100zM444 1126q91 181 125 320q79 27 209 27q76 0 131 -9q-172 -206 -266 -379q-53 0 -109.5 12.5t-89.5 28.5z" />
<glyph unicode="&#xe2;" horiz-adv-x="1206" d="M51 231q0 57 23.5 105t58.5 81t91.5 61t104.5 44.5t117 31.5t110 21.5t101 14.5q4 0 5.5 0.5t4.5 1t5 0.5q0 70 -10.5 110.5t-36.5 69.5q-37 43 -105 43q-124 0 -147 -223q-85 0 -131.5 4.5t-91.5 21.5q10 134 -15 265q195 73 440 73q163 0 252.5 -23.5t139.5 -78.5 q44 -46 69 -121t25 -209v-135q0 -112 20.5 -142.5t94.5 -33.5q16 -94 -23 -162q-201 -3 -369 -69q-42 17 -59.5 45t-17.5 71q0 51 14 103q-46 -96 -100 -140q-101 -75 -242 -75q-328 0 -328 245zM147 1171q215 143 345 279q84 31 178 31q137 -163 327 -322 q-74 -84 -184 -104q-137 100 -274 170q-57 -30 -136 -80.5t-129 -89.5q-46 10 -80.5 44.5t-46.5 71.5zM430 295q0 -86 78 -86q63 0 113.5 59t50.5 158v35q-130 -26 -186 -66t-56 -100z" />
<glyph unicode="&#xe3;" horiz-adv-x="1206" d="M51 231q0 57 23.5 105t58.5 81t91.5 61t104.5 44.5t117 31.5t110 21.5t101 14.5q4 0 5.5 0.5t4.5 1t5 0.5q0 70 -10.5 110.5t-36.5 69.5q-37 43 -105 43q-124 0 -147 -223q-85 0 -131.5 4.5t-91.5 21.5q10 134 -15 265q195 73 440 73q163 0 252.5 -23.5t139.5 -78.5 q44 -46 69 -121t25 -209v-135q0 -112 20.5 -142.5t94.5 -33.5q16 -94 -23 -162q-201 -3 -369 -69q-42 17 -59.5 45t-17.5 71q0 51 14 103q-46 -96 -100 -140q-101 -75 -242 -75q-328 0 -328 245zM109 1153q157 254 331 254q56 0 112 -21t105.5 -42t90.5 -21q104 0 172 68 q69 -44 90 -107q-69 -137 -139 -201.5t-162 -64.5q-60 0 -115.5 22.5t-106 45t-98.5 22.5q-111 0 -207 -84q-62 53 -73 129zM430 295q0 -86 78 -86q63 0 113.5 59t50.5 158v35q-130 -26 -186 -66t-56 -100z" />
<glyph unicode="&#xe4;" horiz-adv-x="1206" d="M51 231q0 57 23.5 105t58.5 81t91.5 61t104.5 44.5t117 31.5t110 21.5t101 14.5q4 0 5.5 0.5t4.5 1t5 0.5q0 70 -10.5 110.5t-36.5 69.5q-37 43 -105 43q-124 0 -147 -223q-85 0 -131.5 4.5t-91.5 21.5q10 134 -15 265q195 73 440 73q163 0 252.5 -23.5t139.5 -78.5 q44 -46 69 -121t25 -209v-135q0 -112 20.5 -142.5t94.5 -33.5q16 -94 -23 -162q-201 -3 -369 -69q-42 17 -59.5 45t-17.5 71q0 51 14 103q-46 -96 -100 -140q-101 -75 -242 -75q-328 0 -328 245zM104 1200q0 78 49 131t144 53q100 0 149.5 -49.5t49.5 -130.5 q0 -71 -55 -119.5t-138 -48.5q-88 0 -143.5 47.5t-55.5 116.5zM430 295q0 -86 78 -86q63 0 113.5 59t50.5 158v35q-130 -26 -186 -66t-56 -100zM623 1221q0 77 53.5 120t142.5 43q86 0 142.5 -47t56.5 -116q0 -79 -46.5 -132t-142.5 -53q-100 0 -153 50.5t-53 134.5z" />
<glyph unicode="&#xe5;" horiz-adv-x="1206" d="M51 231q0 57 23.5 105t58.5 81t91.5 61t104.5 44.5t117 31.5t110 21.5t101 14.5q4 0 5.5 0.5t4.5 1t5 0.5q0 70 -10.5 110.5t-36.5 69.5q-37 43 -105 43q-124 0 -147 -223q-85 0 -131.5 4.5t-91.5 21.5q10 134 -15 265q195 73 440 73q163 0 252.5 -23.5t139.5 -78.5 q44 -46 69 -121t25 -209v-135q0 -112 20.5 -142.5t94.5 -33.5q16 -94 -23 -162q-201 -3 -369 -69q-42 17 -59.5 45t-17.5 71q0 51 14 103q-46 -96 -100 -140q-101 -75 -242 -75q-328 0 -328 245zM276 1268q0 103 81.5 164t209.5 61q121 0 196 -52.5t75 -156.5 q0 -101 -80.5 -164t-212.5 -63q-117 0 -193 57t-76 154zM430 295q0 -86 78 -86q63 0 113.5 59t50.5 158v35q-130 -26 -186 -66t-56 -100zM489 1280q0 -44 20 -72t54 -28q27 0 45.5 24t18.5 64q0 42 -19.5 77t-56.5 35q-28 0 -45 -26.5t-17 -73.5z" />
<glyph unicode="&#xe6;" horiz-adv-x="1540" d="M51 225q0 87 40.5 150t116.5 101t165 58t207 29v51q0 187 -105 187q-53 0 -78 -48t-37 -163q-154 0 -229 37q12 131 -10 266q181 63 383 63q192 0 280 -98q56 50 135 74t156 24q95 0 169 -31t116.5 -77t70 -107t37 -113.5t9.5 -103.5q-26 -69 -78 -118q-218 0 -443 -9 q10 -99 65 -159t153 -60q126 0 225 64q23 -21 39.5 -64t15.5 -84q-61 -49 -163.5 -77.5t-233.5 -28.5q-254 0 -383 164q-39 -72 -135.5 -118t-219.5 -46q-131 0 -199.5 61t-68.5 176zM373 283q0 -48 21.5 -72.5t56.5 -24.5q45 0 85.5 49.5t45.5 153.5l-2 33 q-114 -12 -160.5 -43.5t-46.5 -95.5zM954 541q144 4 209 4q0 126 -24.5 191t-81.5 65q-103 0 -103 -236v-24z" />
<glyph unicode="&#xe7;" horiz-adv-x="991" d="M61 465q0 94 33 180.5t95.5 156.5t163.5 112t227 42q221 0 370 -79q-26 -110 -26 -271q-76 -35 -215 -35q0 116 -32 177t-87 61q-69 0 -107.5 -88.5t-38.5 -226.5q0 -61 15 -116.5t45 -103.5t83 -76t122 -28q125 0 204 47q48 -51 48 -131q-94 -84 -279 -100l-55 -74 q86 -13 134 -68t48 -127q0 -103 -93.5 -158t-266.5 -55q-19 39 -19 105q68 0 114 24t46 66q0 33 -34 54.5t-85 21.5q-37 43 -37 96l94 113q-224 18 -345.5 137.5t-121.5 343.5z" />
<glyph unicode="&#xe8;" horiz-adv-x="1116" d="M61 453q0 246 145 374.5t398 128.5q114 0 203.5 -40t142.5 -105.5t79.5 -145t23.5 -163.5q-15 -71 -68 -121q-312 0 -526 -12q53 -199 270 -199q65 0 139.5 22.5t118.5 55.5q23 -13 39 -55t16 -87q-174 -124 -424 -124q-120 0 -214.5 23.5t-158 65t-105.5 101t-60.5 129 t-18.5 152.5zM258 1403q155 65 336 65q55 -177 141 -340q-73 -36 -209 -36q-47 66 -77.5 105.5t-81.5 96.5t-109 109zM444 524h275q0 127 -33.5 204t-97.5 77q-139 0 -144 -281z" />
<glyph unicode="&#xe9;" horiz-adv-x="1116" d="M61 453q0 246 145 374.5t398 128.5q114 0 203.5 -40t142.5 -105.5t79.5 -145t23.5 -163.5q-15 -71 -68 -121q-312 0 -526 -12q53 -199 270 -199q65 0 139.5 22.5t118.5 55.5q23 -13 39 -55t16 -87q-174 -124 -424 -124q-120 0 -214.5 23.5t-158 65t-105.5 101t-60.5 129 t-18.5 152.5zM444 524h275q0 127 -33.5 204t-97.5 77q-139 0 -144 -281zM471 1126q91 181 125 320q79 27 209 27q76 0 131 -9q-172 -206 -266 -379q-53 0 -109.5 12.5t-89.5 28.5z" />
<glyph unicode="&#xea;" horiz-adv-x="1116" d="M61 453q0 246 145 374.5t398 128.5q114 0 203.5 -40t142.5 -105.5t79.5 -145t23.5 -163.5q-15 -71 -68 -121q-312 0 -526 -12q53 -199 270 -199q65 0 139.5 22.5t118.5 55.5q23 -13 39 -55t16 -87q-174 -124 -424 -124q-120 0 -214.5 23.5t-158 65t-105.5 101t-60.5 129 t-18.5 152.5zM174 1171q212 141 344 279q84 31 178 31q134 -160 328 -322q-74 -84 -184 -104q-134 98 -275 170q-56 -30 -135 -80.5t-129 -89.5q-46 10 -80.5 44.5t-46.5 71.5zM444 524h275q0 127 -33.5 204t-97.5 77q-139 0 -144 -281z" />
<glyph unicode="&#xeb;" horiz-adv-x="1116" d="M61 453q0 246 145 374.5t398 128.5q114 0 203.5 -40t142.5 -105.5t79.5 -145t23.5 -163.5q-15 -71 -68 -121q-312 0 -526 -12q53 -199 270 -199q65 0 139.5 22.5t118.5 55.5q23 -13 39 -55t16 -87q-174 -124 -424 -124q-120 0 -214.5 23.5t-158 65t-105.5 101t-60.5 129 t-18.5 152.5zM131 1200q0 78 49 131t144 53q100 0 149 -49.5t49 -130.5q0 -71 -54.5 -119.5t-137.5 -48.5q-88 0 -143.5 47.5t-55.5 116.5zM444 524h275q0 127 -33.5 204t-97.5 77q-139 0 -144 -281zM649 1221q0 77 54 120t143 43q86 0 142 -47t56 -116q0 -80 -46 -132.5 t-142 -52.5q-100 0 -153.5 50.5t-53.5 134.5z" />
<glyph unicode="&#xec;" horiz-adv-x="798" d="M55 -6q0 107 19 160q81 4 107 39.5t26 138.5v260q0 73 -31 103.5t-121 39.5q0 104 27 154q144 0 266 20t176 47q72 -32 72 -131v-493q0 -103 26.5 -138.5t108.5 -39.5q17 -55 17 -160q-76 6 -347 6q-273 0 -346 -6zM74 1403q155 65 336 65q55 -177 141 -340 q-73 -36 -209 -36q-47 66 -77.5 105.5t-81.5 96.5t-109 109z" />
<glyph unicode="&#xed;" horiz-adv-x="798" d="M55 -6q0 107 19 160q81 4 107 39.5t26 138.5v260q0 73 -31 103.5t-121 39.5q0 104 27 154q144 0 266 20t176 47q72 -32 72 -131v-493q0 -103 26.5 -138.5t108.5 -39.5q17 -55 17 -160q-76 6 -347 6q-273 0 -346 -6zM287 1126q91 181 125 320q79 27 209 27q75 0 131 -9 q-175 -209 -267 -379q-52 0 -108.5 12.5t-89.5 28.5z" />
<glyph unicode="&#xee;" horiz-adv-x="798" d="M-10 1171q212 141 344 279q84 31 178 31q134 -160 328 -322q-73 -84 -185 -104q-137 100 -274 170q-56 -30 -135 -80.5t-129 -89.5q-46 10 -80.5 44.5t-46.5 71.5zM55 -6q0 107 19 160q81 4 107 39.5t26 138.5v260q0 73 -31 103.5t-121 39.5q0 104 27 154q144 0 266 20 t176 47q72 -32 72 -131v-493q0 -103 26.5 -138.5t108.5 -39.5q17 -55 17 -160q-76 6 -347 6q-273 0 -346 -6z" />
<glyph unicode="&#xef;" horiz-adv-x="798" d="M-53 1200q0 78 48.5 131t143.5 53q100 0 149.5 -49.5t49.5 -130.5q0 -71 -55 -119.5t-138 -48.5q-87 0 -142.5 47.5t-55.5 116.5zM55 -6q0 107 19 160q81 4 107 39.5t26 138.5v260q0 73 -31 103.5t-121 39.5q0 104 27 154q144 0 266 20t176 47q72 -32 72 -131v-493 q0 -103 26.5 -138.5t108.5 -39.5q17 -55 17 -160q-76 6 -347 6q-273 0 -346 -6zM465 1221q0 77 54 120t143 43q86 0 142 -47t56 -116q0 -80 -46 -132.5t-142 -52.5q-100 0 -153.5 50.5t-53.5 134.5z" />
<glyph unicode="&#xf0;" horiz-adv-x="1193" d="M61 440q0 106 31 195.5t82 151.5t118.5 105.5t139.5 64t146 20.5q19 0 59 -4q-36 58 -98 110q-197 -91 -293 -143q-19 32 -30.5 81.5t-8.5 86.5l158 70q-95 34 -224 53q0 100 43 151q255 -12 449 -90l262 115q37 -70 37 -168q-29 -9 -117 -41q156 -106 237 -265.5 t81 -361.5q0 -150 -45 -264.5t-125.5 -184t-184.5 -104t-229 -34.5t-220 34t-153 95.5t-86.5 143.5t-28.5 183zM453 449q0 -150 39.5 -218.5t117.5 -68.5q24 0 41 6t35 26t29.5 55t18.5 96.5t7 146.5q0 135 -18 243q-44 39 -96 39q-80 0 -127 -78.5t-47 -246.5z" />
<glyph unicode="&#xf1;" horiz-adv-x="1445" d="M55 -6q0 104 21 160q78 0 104.5 37t26.5 141v221q0 55 -4 83.5t-19.5 52t-43.5 32.5t-79 14q0 104 27 154q143 0 263.5 20t174.5 47q70 -31 70 -131q0 -41 -25 -125q44 102 80 138q108 108 277 108q71 0 133.5 -19t113 -58t80 -105t29.5 -152v-280q0 -102 18.5 -140 t69.5 -38q23 -58 23 -160q-183 6 -285 6q-242 0 -334 -6q0 103 21 160q98 0 98 200v142q0 115 -30 163t-97 48q-75 0 -123.5 -89.5t-48.5 -228.5v-57q0 -101 24 -139.5t72 -38.5q23 -59 23 -160q-91 6 -314 6q-255 0 -346 -6zM283 1153q157 254 331 254q56 0 112 -21 t105.5 -42t90.5 -21q104 0 172 68q69 -44 90 -107q-69 -137 -139 -201.5t-162 -64.5q-60 0 -115.5 22.5t-106 45t-98.5 22.5q-111 0 -207 -84q-62 53 -73 129z" />
<glyph unicode="&#xf2;" horiz-adv-x="1245" d="M61 451q0 126 44 224t122 158.5t180 91.5t222 31q273 0 414 -129t141 -342q0 -240 -152.5 -371.5t-421.5 -131.5q-270 0 -409.5 124t-139.5 345zM287 1403q155 65 336 65q55 -177 141 -340q-73 -36 -209 -36q-47 66 -77.5 105.5t-81.5 96.5t-109 109zM451 528 q0 -168 51.5 -278.5t146.5 -110.5q67 0 106.5 79t39.5 200q0 188 -58 289.5t-139 101.5q-72 0 -109.5 -79t-37.5 -202z" />
<glyph unicode="&#xf3;" horiz-adv-x="1245" d="M61 451q0 126 44 224t122 158.5t180 91.5t222 31q273 0 414 -129t141 -342q0 -240 -152.5 -371.5t-421.5 -131.5q-270 0 -409.5 124t-139.5 345zM451 528q0 -168 51.5 -278.5t146.5 -110.5q67 0 106.5 79t39.5 200q0 188 -58 289.5t-139 101.5q-72 0 -109.5 -79 t-37.5 -202zM500 1126q91 181 125 320q79 27 209 27q75 0 131 -9q-175 -209 -267 -379q-52 0 -108.5 12.5t-89.5 28.5z" />
<glyph unicode="&#xf4;" horiz-adv-x="1245" d="M61 451q0 126 44 224t122 158.5t180 91.5t222 31q273 0 414 -129t141 -342q0 -240 -152.5 -371.5t-421.5 -131.5q-270 0 -409.5 124t-139.5 345zM203 1171q212 141 344 279q84 31 178 31q134 -160 328 -322q-73 -84 -185 -104q-137 100 -274 170q-56 -30 -135 -80.5 t-129 -89.5q-46 10 -80.5 44.5t-46.5 71.5zM451 528q0 -168 51.5 -278.5t146.5 -110.5q67 0 106.5 79t39.5 200q0 188 -58 289.5t-139 101.5q-72 0 -109.5 -79t-37.5 -202z" />
<glyph unicode="&#xf5;" horiz-adv-x="1245" d="M61 451q0 126 44 224t122 158.5t180 91.5t222 31q273 0 414 -129t141 -342q0 -240 -152.5 -371.5t-421.5 -131.5q-270 0 -409.5 124t-139.5 345zM164 1153q157 254 332 254q56 0 112 -21t105 -42t90 -21q104 0 172 68q69 -44 90 -107q-69 -137 -139 -201.5t-162 -64.5 q-60 0 -115.5 22.5t-106 45t-98.5 22.5q-110 0 -206 -84q-63 54 -74 129zM451 528q0 -168 51.5 -278.5t146.5 -110.5q67 0 106.5 79t39.5 200q0 188 -58 289.5t-139 101.5q-72 0 -109.5 -79t-37.5 -202z" />
<glyph unicode="&#xf6;" horiz-adv-x="1245" d="M61 451q0 126 44 224t122 158.5t180 91.5t222 31q273 0 414 -129t141 -342q0 -240 -152.5 -371.5t-421.5 -131.5q-270 0 -409.5 124t-139.5 345zM160 1200q0 78 48.5 131t143.5 53q100 0 149.5 -49.5t49.5 -130.5q0 -71 -55 -119.5t-138 -48.5q-87 0 -142.5 47.5 t-55.5 116.5zM451 528q0 -168 51.5 -278.5t146.5 -110.5q67 0 106.5 79t39.5 200q0 188 -58 289.5t-139 101.5q-72 0 -109.5 -79t-37.5 -202zM678 1221q0 77 53.5 120t142.5 43q86 0 142.5 -47t56.5 -116q0 -80 -46 -132.5t-142 -52.5q-100 0 -153.5 50.5t-53.5 134.5z" />
<glyph unicode="&#xf7;" d="M78 449q0 110 26 176h932q0 -61 -4.5 -95.5t-21.5 -76.5q-217 2 -435 2q-230 0 -497 -6zM369 903q0 82 53 125.5t129 46.5q73 0 123.5 -41t50.5 -108q0 -83 -45.5 -138t-120.5 -55q-96 0 -143 44t-47 126zM387 164q0 76 41.5 123t130.5 47q92 0 136 -45t44 -125 q0 -75 -50.5 -121.5t-125.5 -46.5t-125.5 48.5t-50.5 119.5z" />
<glyph unicode="&#xf8;" horiz-adv-x="1245" d="M61 451q0 126 44 224t122 158.5t180 91.5t222 31q147 0 256 -38l53 69q62 0 121 -13t92 -36l-96 -123q129 -120 129 -330q0 -240 -152.5 -371.5t-421.5 -131.5q-132 0 -231 30l-72 -92q-146 0 -213 45l111 137q-144 123 -144 349zM451 528q0 -74 8 -129l260 336 q-50 74 -121 74q-72 0 -109.5 -79t-37.5 -202zM543 188q46 -49 106 -49q67 0 106.5 79t39.5 200q0 34 -4 88z" />
<glyph unicode="&#xf9;" horiz-adv-x="1329" d="M31 735q0 105 26 154q142 0 253.5 19.5t166.5 47.5q70 -31 70 -131v-401q0 -131 21 -179t67 -48q70 0 119 79t49 228v59q0 102 -28 138.5t-118 43.5q0 104 27 154q150 0 269 16t169 41q70 -31 70 -131v-424q0 -84 9 -121t31.5 -51t74.5 -16q16 -94 -23 -162 q-201 -3 -369 -69q-42 17 -59.5 45t-17.5 71q0 45 14 103q-28 -83 -78 -127q-43 -38 -120 -63t-173 -25q-163 0 -243 88.5t-80 296.5v182q0 104 -22.5 138.5t-104.5 43.5zM352 1403q155 65 336 65q55 -177 141 -340q-73 -36 -208 -36q-70 98 -128 167t-141 144z" />
<glyph unicode="&#xfa;" horiz-adv-x="1329" d="M31 735q0 105 26 154q142 0 253.5 19.5t166.5 47.5q70 -31 70 -131v-401q0 -131 21 -179t67 -48q70 0 119 79t49 228v59q0 102 -28 138.5t-118 43.5q0 104 27 154q150 0 269 16t169 41q70 -31 70 -131v-424q0 -84 9 -121t31.5 -51t74.5 -16q16 -94 -23 -162 q-201 -3 -369 -69q-42 17 -59.5 45t-17.5 71q0 45 14 103q-28 -83 -78 -127q-43 -38 -120 -63t-173 -25q-163 0 -243 88.5t-80 296.5v182q0 104 -22.5 138.5t-104.5 43.5zM565 1126q91 181 125 320q79 27 209 27q75 0 131 -9q-172 -206 -266 -379q-53 0 -109.5 12.5 t-89.5 28.5z" />
<glyph unicode="&#xfb;" horiz-adv-x="1329" d="M31 735q0 105 26 154q142 0 253.5 19.5t166.5 47.5q70 -31 70 -131v-401q0 -131 21 -179t67 -48q70 0 119 79t49 228v59q0 102 -28 138.5t-118 43.5q0 104 27 154q150 0 269 16t169 41q70 -31 70 -131v-424q0 -84 9 -121t31.5 -51t74.5 -16q16 -94 -23 -162 q-201 -3 -369 -69q-42 17 -59.5 45t-17.5 71q0 45 14 103q-28 -83 -78 -127q-43 -38 -120 -63t-173 -25q-163 0 -243 88.5t-80 296.5v182q0 104 -22.5 138.5t-104.5 43.5zM268 1171q212 141 344 279q84 31 179 31q137 -163 327 -322q-74 -84 -184 -104q-134 98 -275 170 q-56 -30 -135 -80.5t-129 -89.5q-46 10 -80.5 44.5t-46.5 71.5z" />
<glyph unicode="&#xfc;" horiz-adv-x="1329" d="M31 735q0 105 26 154q142 0 253.5 19.5t166.5 47.5q70 -31 70 -131v-401q0 -131 21 -179t67 -48q70 0 119 79t49 228v59q0 102 -28 138.5t-118 43.5q0 104 27 154q150 0 269 16t169 41q70 -31 70 -131v-424q0 -84 9 -121t31.5 -51t74.5 -16q16 -94 -23 -162 q-201 -3 -369 -69q-42 17 -59.5 45t-17.5 71q0 45 14 103q-28 -83 -78 -127q-43 -38 -120 -63t-173 -25q-163 0 -243 88.5t-80 296.5v182q0 104 -22.5 138.5t-104.5 43.5zM225 1200q0 78 49 131t144 53q100 0 149 -49.5t49 -130.5q0 -71 -54.5 -119.5t-137.5 -48.5 q-88 0 -143.5 47.5t-55.5 116.5zM743 1221q0 77 54 120t143 43q86 0 142.5 -47t56.5 -116q0 -79 -46.5 -132t-142.5 -53q-100 0 -153.5 50.5t-53.5 134.5z" />
<glyph unicode="&#xfd;" horiz-adv-x="1185" d="M20 944q117 -6 314 -6q224 0 350 6q0 -101 -25 -160q-75 -12 -83.5 -40.5t36.5 -114.5q63 -123 117 -269l98 250q38 97 28 131t-69 43q-22 58 -22 160q94 -6 207 -6t194 8q0 -97 -26 -162q-48 -12 -75.5 -41t-59.5 -102l-302 -717q-58 -138 -107.5 -225t-98 -132.5 t-92 -61t-101.5 -15.5q-67 0 -134 32t-99 79q-7 37 0 104t26 117q102 -39 238 -39q73 0 111 18t71 70l10 18q-164 390 -348 764q-35 72 -64.5 97.5t-72.5 33.5q-21 62 -21 160zM610 1126q91 181 125 320q79 27 209 27q75 0 131 -9q-172 -206 -266 -379q-53 0 -109.5 12.5 t-89.5 28.5z" />
<glyph unicode="&#xfe;" horiz-adv-x="1378" d="M41 -502q0 105 14 160q59 4 86.5 22t39.5 64.5t12 142.5v1217q0 73 -31 103.5t-121 39.5q0 104 27 154q144 0 266 20t176 47q72 -32 72 -131v-354q0 -97 -15 -176q30 40 68 70q43 33 113 56t149 23q91 0 165.5 -24t132.5 -73t90 -129.5t32 -186.5q0 -254 -166 -407.5 t-438 -153.5q-65 0 -131 14v-88q0 -133 47.5 -187t175.5 -63q18 -51 18 -160q-117 6 -368 6q-273 0 -414 -6zM582 197q55 -70 129 -70q31 0 58.5 8t57.5 31t51 61t34.5 103.5t13.5 152.5q0 54 -7 99t-24 86t-50 64.5t-79 23.5q-77 0 -130.5 -75.5t-53.5 -234.5v-249z" />
<glyph unicode="&#xff;" horiz-adv-x="1185" d="M20 944q117 -6 314 -6q224 0 350 6q0 -101 -25 -160q-75 -12 -83.5 -40.5t36.5 -114.5q63 -123 117 -269l98 250q38 97 28 131t-69 43q-22 58 -22 160q94 -6 207 -6t194 8q0 -97 -26 -162q-48 -12 -75.5 -41t-59.5 -102l-302 -717q-58 -138 -107.5 -225t-98 -132.5 t-92 -61t-101.5 -15.5q-67 0 -134 32t-99 79q-7 37 0 104t26 117q102 -39 238 -39q73 0 111 18t71 70l10 18q-164 390 -348 764q-35 72 -64.5 97.5t-72.5 33.5q-21 62 -21 160zM270 1200q0 78 49 131t144 53q100 0 149.5 -49.5t49.5 -130.5q0 -71 -55 -119.5t-138 -48.5 q-88 0 -143.5 47.5t-55.5 116.5zM788 1221q0 77 54 120t143 43q86 0 142.5 -47t56.5 -116q0 -79 -46.5 -132t-142.5 -53q-100 0 -153.5 50.5t-53.5 134.5z" />
<glyph unicode="&#x152;" horiz-adv-x="2103" d="M72 698q0 325 188.5 515t501.5 190q96 0 299.5 -9.5t361.5 -9.5q342 0 547 7q2 -89 13 -193.5t30 -171.5q-98 -37 -207 -37q-11 61 -27.5 101.5t-47 75.5t-82 52t-125.5 17h-275q182 -167 191 -481h18q89 0 120.5 31.5t33.5 113.5q65 25 180 25q-8 -132 -8 -240 q0 -126 8 -244q-114 0 -176 21q-7 83 -41 111t-121 28h-20q-35 -285 -207 -448h370q103 0 165 65.5t102 214.5q67 -6 124.5 -25.5t84.5 -44.5q-47 -143 -64 -366q-242 4 -596 4q-145 0 -341 -9t-310 -9q-326 0 -508 194.5t-182 521.5zM485 748q0 -127 17 -234t51.5 -192 t94 -133t138.5 -48q125 0 189.5 143.5t64.5 397.5q0 159 -34.5 286t-104.5 204t-166 77q-124 0 -187 -129t-63 -372z" />
<glyph unicode="&#x153;" horiz-adv-x="1779" d="M61 451q0 233 149 369t404 136q210 0 342 -96q132 96 326 96q109 0 195.5 -40t138 -105.5t77.5 -145t23 -163.5q-15 -73 -67 -121q-332 0 -494 -14q26 -93 92.5 -145t159.5 -52q56 0 128.5 22.5t115.5 55.5q23 -13 39 -55t16 -87q-174 -124 -410 -124q-215 0 -348 100 q-133 -100 -352 -100q-246 0 -390.5 126.5t-144.5 342.5zM451 528q0 -180 49.5 -284.5t134.5 -104.5q57 0 91 75t34 204q0 180 -47 285.5t-129 105.5q-61 0 -97 -76t-36 -205zM1137 524h245q0 125 -31 203t-85 78q-58 0 -92 -75t-37 -206z" />
<glyph unicode="&#x178;" horiz-adv-x="1298" d="M20 1389q123 -5 345 -5q239 0 344 5q0 -74 -15 -158q-31 -4 -47.5 -17.5t-18.5 -36.5t4.5 -50t22.5 -66q111 -279 144 -369q85 219 155 381q29 67 13.5 110.5t-72.5 47.5q-18 67 -18 158q93 -5 210 -5q109 0 191 5q0 -88 -18 -158q-39 -8 -70.5 -43.5t-73.5 -128.5 l-250 -551v-102q0 -80 6.5 -124t30 -73t60.5 -39.5t106 -15.5q21 -67 21 -160q-119 6 -439 6q-55 0 -436 -6q4 107 25 160q54 4 85 8.5t58.5 16t39.5 26t21 45t11 65t2 93.5v106l-285 596q-54 110 -135 121q-17 64 -17 158zM324 1647q0 78 48.5 131t143.5 53 q100 0 149.5 -49.5t49.5 -130.5q0 -71 -55 -119.5t-138 -48.5q-87 0 -142.5 47.5t-55.5 116.5zM842 1667q0 77 53.5 120.5t142.5 43.5q86 0 142.5 -47.5t56.5 -116.5q0 -79 -46 -131.5t-142 -52.5q-100 0 -153.5 50t-53.5 134z" />
<glyph unicode="&#x2c6;" d="M127 1171q212 141 344 279q84 31 178 31q134 -160 328 -322q-74 -84 -184 -104q-134 98 -275 170q-56 -30 -135 -80.5t-129 -89.5q-46 10 -80.5 44.5t-46.5 71.5z" />
<glyph unicode="&#x2dc;" d="M90 1153q157 254 332 254q56 0 112 -21t105 -42t90 -21q104 0 172 68q69 -44 90 -107q-69 -137 -139 -201.5t-162 -64.5q-60 0 -115.5 22.5t-105.5 45t-98 22.5q-111 0 -207 -84q-63 54 -74 129z" />
<glyph unicode="&#x2000;" horiz-adv-x="969" />
<glyph unicode="&#x2001;" horiz-adv-x="1939" />
<glyph unicode="&#x2002;" horiz-adv-x="969" />
<glyph unicode="&#x2003;" horiz-adv-x="1939" />
<glyph unicode="&#x2004;" horiz-adv-x="646" />
<glyph unicode="&#x2005;" horiz-adv-x="484" />
<glyph unicode="&#x2006;" horiz-adv-x="323" />
<glyph unicode="&#x2007;" horiz-adv-x="323" />
<glyph unicode="&#x2008;" horiz-adv-x="242" />
<glyph unicode="&#x2009;" horiz-adv-x="387" />
<glyph unicode="&#x200a;" horiz-adv-x="107" />
<glyph unicode="&#x2010;" horiz-adv-x="858" d="M123 453q0 120 35 215h577q0 -120 -26 -199q-377 0 -586 -16z" />
<glyph unicode="&#x2011;" horiz-adv-x="858" d="M123 453q0 120 35 215h577q0 -120 -26 -199q-377 0 -586 -16z" />
<glyph unicode="&#x2012;" horiz-adv-x="858" d="M123 453q0 120 35 215h577q0 -120 -26 -199q-377 0 -586 -16z" />
<glyph unicode="&#x2013;" horiz-adv-x="1220" d="M123 467q0 109 33 188h942q0 -108 -33 -176q-508 0 -942 -12z" />
<glyph unicode="&#x2014;" horiz-adv-x="2162" d="M123 471q0 108 31 184h1886q0 -93 -31 -174q-1190 0 -1886 -10z" />
<glyph unicode="&#x2018;" horiz-adv-x="647" d="M123 1047q0 118 56.5 238t156.5 210q92 0 156 -41q-64 -64 -88.5 -113.5t-24.5 -105.5q0 -42 35 -64t110 -30q0 -76 -6 -123.5t-26 -112.5q-172 -6 -259 -65q-61 18 -85.5 61.5t-24.5 145.5z" />
<glyph unicode="&#x2019;" horiz-adv-x="647" d="M123 1196q0 74 6 122.5t27 113.5q171 6 258 65q61 -18 85.5 -61.5t24.5 -145.5q0 -118 -56.5 -238t-156.5 -210q-91 0 -155 41q64 64 88 113.5t24 105.5q0 42 -35 64t-110 30z" />
<glyph unicode="&#x201a;" horiz-adv-x="647" d="M123 25q0 74 6 121.5t27 113.5q169 6 258 66q61 -18 85.5 -61.5t24.5 -145.5q0 -118 -56.5 -238.5t-156.5 -210.5q-91 0 -155 41q64 64 88 113.5t24 105.5q0 42 -35.5 64.5t-109.5 30.5z" />
<glyph unicode="&#x201c;" horiz-adv-x="1064" d="M123 1047q0 118 56.5 238t156.5 210q92 0 156 -41q-63 -63 -88 -114t-25 -105q0 -43 29.5 -64.5t95.5 -29.5q0 -142 -33 -232q-145 -6 -238 -69q-62 18 -86 61t-24 146zM555 1047q0 118 51 232.5t144 199.5q91 0 155 -41q-61 -61 -84.5 -106t-23.5 -97q0 -43 35 -64.5 t110 -29.5q0 -75 -6 -122.5t-27 -111.5q-164 -9 -250 -67q-60 17 -82 60t-22 147z" />
<glyph unicode="&#x201d;" horiz-adv-x="1064" d="M123 1196q0 75 6 122.5t27 111.5q164 9 250 67q60 -17 82 -60t22 -147q0 -118 -51 -232.5t-144 -199.5q-91 0 -155 41q61 61 84.5 106t23.5 97q0 43 -35 64.5t-110 29.5zM561 1196q0 141 33 231q142 6 237 70q62 -18 86.5 -61t24.5 -146q0 -118 -56.5 -238t-156.5 -210 q-92 0 -156 41q63 63 88 114t25 105q0 43 -29.5 64.5t-95.5 29.5z" />
<glyph unicode="&#x201e;" horiz-adv-x="1064" d="M123 18q0 75 6 122.5t27 111.5q164 9 250 67q60 -17 82 -59.5t22 -146.5q0 -118 -51 -232.5t-144 -199.5q-93 0 -155 40q61 61 84.5 106t23.5 97q0 43 -35 64.5t-110 29.5zM561 18q0 142 33 232q144 6 237 69q62 -18 86.5 -60.5t24.5 -145.5q0 -118 -56.5 -238.5 t-156.5 -210.5q-92 0 -156 41q63 63 88 114t25 105q0 43 -29.5 64.5t-95.5 29.5z" />
<glyph unicode="&#x2022;" horiz-adv-x="901" d="M123 561q0 132 93 217.5t241 85.5q151 0 236 -89.5t85 -217.5q0 -143 -86.5 -233.5t-234.5 -90.5q-83 0 -148.5 27.5t-105 74t-60 104t-20.5 122.5z" />
<glyph unicode="&#x2026;" horiz-adv-x="2045" d="M123 190q0 93 62.5 148t160.5 55q89 0 145 -57.5t56 -134.5q0 -92 -57 -154.5t-156 -62.5q-98 0 -154.5 55.5t-56.5 150.5zM819 190q0 93 62.5 148t160.5 55q89 0 145 -57.5t56 -134.5q0 -92 -57 -154.5t-156 -62.5q-98 0 -154.5 55.5t-56.5 150.5zM1499 190 q0 93 62.5 148t160.5 55q89 0 145 -57.5t56 -134.5q0 -92 -57 -154.5t-156 -62.5q-98 0 -154.5 55.5t-56.5 150.5z" />
<glyph unicode="&#x202f;" horiz-adv-x="387" />
<glyph unicode="&#x2039;" horiz-adv-x="585" d="M123 420q0 47 7.5 102t19.5 82q102 86 231 230q41 0 92.5 -20.5t77.5 -39.5q-92 -131 -160 -262q36 -73 71 -125t89 -119q-20 -36 -69 -77.5t-91 -63.5q-131 175 -268 293z" />
<glyph unicode="&#x203a;" horiz-adv-x="618" d="M35 795q64 49 162 49q132 -130 264 -240q35 -80 35 -164q-198 -191 -322 -331q-87 47 -129 122q94 118 172 248q-67 148 -182 316z" />
<glyph unicode="&#x205f;" horiz-adv-x="484" />
<glyph unicode="&#x20ac;" horiz-adv-x="1443" d="M94 383q0 109 33 188h82q-8 78 -8 123l-107 -2q0 110 33 189h92q37 168 141 288t243.5 177t301.5 57q229 0 451 -107q-23 -135 -23 -317q-25 -14 -86.5 -21.5t-116.5 -7.5q-3 295 -217 295q-128 0 -197.5 -99.5t-88.5 -264.5h442q0 -108 -33 -176q-206 0 -415 -3 q3 -77 14 -131h434q0 -108 -33 -176h-350q102 -221 340 -221q148 0 303 86q43 -37 57 -113q-82 -72 -204.5 -118.5t-276.5 -46.5q-229 0 -398.5 107.5t-246.5 297.5z" />
<glyph unicode="&#x2122;" horiz-adv-x="2129" d="M102 1229q33 115 33 231q54 -2 375 -2q254 0 360 2q0 -123 39 -229q-61 -23 -149 -23q-24 83 -47.5 113.5t-67.5 30.5v-314q0 -90 22.5 -122t94.5 -35q14 -55 14 -148q-70 4 -252 4q-213 0 -315 -4q0 103 16 148q81 3 106 34t25 123v310q-72 -20 -104 -140 q-102 0 -150 21zM905 733q0 99 15 150q42 2 62.5 32.5t27.5 118.5l16 183q5 47 -6.5 69t-54.5 23q-13 64 -13 153q78 -4 195 -4q170 0 188 2l144 -370l123 370q47 -2 200 -2q150 0 193 2q0 -85 -13 -151q-46 -3 -61 -23.5t-10 -66.5l24 -228q6 -62 20 -82t58 -26 q15 -64 15 -150q-46 4 -261 4q-130 0 -184 -6q0 92 14 152q38 5 49 24t5 74l-27 246l-184 -490q-25 -10 -103 -10l-211 494l-18 -172q-10 -98 0.5 -130.5t52.5 -35.5q15 -65 15 -150q-24 4 -119 4q-120 0 -152 -4z" />
<glyph unicode="&#x25fc;" horiz-adv-x="942" d="M0 0v942h942v-942h-942z" />
<glyph unicode="&#xfb03;" horiz-adv-x="2394" d="M55 756q0 113 29 162h125v59q0 112 44 198.5t124.5 141t189 82.5t240.5 28q218 0 383 -73q182 114 487 114q291 0 465 -75q-24 -103 -24 -279q-128 -55 -340 -55q-14 150 -49.5 202t-135.5 52q-118 0 -166.5 -67t-48.5 -199v-129h322q261 4 434 38q70 -30 70 -114v-510 q0 -72 14.5 -110t41 -51.5t77.5 -16.5q18 -46 18 -160q-99 6 -346 6q-264 0 -346 -6q0 86 16 160q83 5 109.5 37.5t26.5 134.5v237q0 45 -7 72.5t-27.5 49.5t-60 32t-102.5 12q-162 0 -240 -24v-302q0 -100 12.5 -149t41.5 -70.5t90 -29.5q14 -41 14 -160q-126 6 -330 6 q-257 0 -368 -6q0 105 14 160q57 3 85 21t40 63t12 137v354q-94 25 -172 25q-101 0 -219 -37v-314q0 -80 5.5 -125.5t23 -72.5t42 -36.5t70.5 -14.5q19 -53 19 -160q-117 6 -328 6q-232 0 -373 -6q0 101 15 160q58 4 85.5 22t39.5 64.5t12 142.5v348q-85 25 -154 25z M598 918h391v65q0 89 31 168q-66 123 -234 123q-72 0 -110.5 -18t-58 -68.5t-19.5 -147.5v-122z" />
<glyph unicode="&#xfb04;" horiz-adv-x="2441" d="M55 756q0 113 29 162h125v59q0 112 44 198.5t124.5 141t189 82.5t240.5 28q218 0 383 -73q176 114 461 114q77 0 160.5 -17t140.5 -42q135 17 215 59q71 -32 71 -131v-1005q0 -103 27 -138t109 -40q16 -52 16 -160q-76 6 -346 6q-272 0 -346 -6q0 110 18 160 q81 4 107 39.5t26 138.5v786q0 97 -63.5 146t-149.5 49q-125 0 -191.5 -60t-66.5 -206v-129h240q0 -124 -21 -170q-120 0 -219 -31v-314q0 -137 31 -188.5t131 -60.5q19 -53 19 -160q-117 6 -349 6q-231 0 -372 -6q0 105 14 160q58 4 85.5 22t39.5 64.5t12 142.5v346 q-94 25 -172 25q-101 0 -219 -37v-314q0 -80 5.5 -125.5t23 -72.5t42 -36.5t70.5 -14.5q19 -53 19 -160q-117 6 -328 6q-232 0 -373 -6q0 101 15 160q58 4 85.5 22t39.5 64.5t12 142.5v348q-85 25 -154 25zM598 918h391v59q0 92 31 174q-66 127 -221 127q-105 0 -153 -53.5 t-48 -184.5v-122z" />
</font>
</defs>
</svg>
